<?xml version="1.0" encoding="utf-8"?>
<!-- Generator: Adobe Illustrator 23.0.3, SVG Export Plug-In . SVG Version: 6.00 Build 0)  -->
<svg version="1.1" id="Слой_1" xmlns="http://www.w3.org/2000/svg" xmlns:xlink="http://www.w3.org/1999/xlink" x="0px" y="0px"
	 viewBox="0 0 742.5 167.5" style="enable-background:new 0 0 742.5 167.5;" xml:space="preserve">
<style type="text/css">
	.st0{clip-path:url(#SVGID_2_);fill:#855814;}
	.st1{clip-path:url(#SVGID_4_);fill:#855814;}
	.st2{clip-path:url(#SVGID_6_);fill:#855814;}
	.st3{clip-path:url(#SVGID_8_);fill:#855814;}
	.st4{clip-path:url(#SVGID_10_);fill:#855814;}
	.st5{clip-path:url(#SVGID_12_);fill:#855814;}
	.st6{clip-path:url(#SVGID_14_);fill:#855814;}
	.st7{clip-path:url(#SVGID_16_);fill:#855814;}
	.st8{clip-path:url(#SVGID_18_);fill:#855814;}
	.st9{clip-path:url(#SVGID_20_);fill:#855814;}
	.st10{clip-path:url(#SVGID_22_);fill:#855814;}
	.st11{clip-path:url(#SVGID_24_);fill:#855814;}
	.st12{clip-path:url(#SVGID_26_);fill:#855814;}
	.st13{clip-path:url(#SVGID_28_);fill:#855814;}
	.st14{clip-path:url(#SVGID_30_);fill:#855814;}
	.st15{clip-path:url(#SVGID_32_);fill:#855814;}
	.st16{clip-path:url(#SVGID_34_);fill:#855814;}
	.st17{clip-path:url(#SVGID_36_);fill:#855814;}
	.st18{clip-path:url(#SVGID_38_);fill:#855814;}
	.st19{clip-path:url(#SVGID_40_);fill:#855814;}
	.st20{clip-path:url(#SVGID_42_);fill:#855814;}
	.st21{clip-path:url(#SVGID_44_);fill:#855814;}
	.st22{clip-path:url(#SVGID_46_);fill:#855814;}
	.st23{clip-path:url(#SVGID_48_);fill:#855814;}
	.st24{clip-path:url(#SVGID_50_);fill:#855814;}
	.st25{clip-path:url(#SVGID_52_);fill:#855814;}
	.st26{clip-path:url(#SVGID_54_);fill:#855814;}
	.st27{clip-path:url(#SVGID_56_);fill:#855814;}
	.st28{clip-path:url(#SVGID_58_);fill:#855814;}
	.st29{clip-path:url(#SVGID_60_);fill:#855814;}
	.st30{clip-path:url(#SVGID_62_);fill:#855814;}
</style>
<g>
	<g>
		<defs>
			<path id="SVGID_1_" d="M27.7,110.3C6.5,74.6,5.6,39.9,6.2,24.8C12.3,21.2,21,16.7,31.9,13c8-2.7,21.2-7,38.8-7
				c6.7,0,22.2,0.6,39.5,7.3c10.5,4.1,25.7,11.9,25.7,11.9c0,2.6-0.1,5.7-0.3,9.2c-0.2,3.5-0.6,7.5-1.1,11.8
				c-1.4,11-4.4,33.9-17.3,58.6c-14,26.7-33.4,43.6-46,52.8C59.7,149.4,41.9,134.4,27.7,110.3 M29.5,9.7
				C17.8,13.6,8.6,18.3,2.1,22.2c-0.6,16,0.4,52.9,22.9,90.9c15.1,25.6,34,41.5,46.3,50.2c13.5-9.8,34-27.7,48.9-56.1
				c13.7-26.2,17-50.5,18.4-62.2c0.6-4.6,0.9-8.7,1.2-12.5c0.2-3.7,0.3-7,0.3-9.8c0,0-16.2-8.3-27.4-12.7c-18.4-7.1-34.9-7.8-42-7.8
				c0,0,0,0-0.1,0C52,2.2,38,6.8,29.5,9.7"/>
		</defs>
		<use xlink:href="#SVGID_1_"  style="overflow:visible;fill:#855814;"/>
		<clipPath id="SVGID_2_">
			<use xlink:href="#SVGID_1_"  style="overflow:visible;"/>
		</clipPath>
		<rect x="1.5" y="2.2" class="st0" width="138.5" height="161.1"/>
	</g>
	<g>
		<defs>
			<path id="SVGID_3_" d="M62.9,122.3c-0.2,7.8-0.3,15.5-0.5,23.3c3.2,2.7,6.2,4.9,8.8,6.8c2.8-2,5.9-4.5,9.3-7.3
				c0-7.6-0.1-15.3-0.1-22.9C74.5,122.2,68.7,122.2,62.9,122.3"/>
		</defs>
		<use xlink:href="#SVGID_3_"  style="overflow:visible;fill:#855814;"/>
		<clipPath id="SVGID_4_">
			<use xlink:href="#SVGID_3_"  style="overflow:visible;"/>
		</clipPath>
		<rect x="62.4" y="122.1" class="st1" width="18.1" height="30.2"/>
	</g>
	<g>
		<defs>
			<path id="SVGID_5_" d="M33.9,15c-10.4,3.5-18.7,7.8-24.5,11.2c-0.5,14.3,0.3,47.3,20.4,81.2c0.9,1.6,1.9,3.1,2.8,4.6
				c2.2-11.5,4.4-23,6.6-34.6l-12.7-5l0.4-28.9l18.9,0.1l0.2,15.3l14.7-0.1L61,43.6h20.4l-0.2,15.4h15.1l0.2-15.5l19.3,0.2v29.1
				l-13.5,4.8l6.7,34.9c2-3.2,4-6.6,5.9-10.2c12.3-23.4,15.2-45.2,16.5-55.6c0.5-4.1,0.8-7.8,1-11.2c0.2-3.3,0.3-6.3,0.3-8.8
				c0,0-14.4-7.5-24.4-11.3c-16.5-6.4-31.2-7-37.6-7c0,0,0,0-0.1,0C54,8.4,41.5,12.5,33.9,15"/>
		</defs>
		<use xlink:href="#SVGID_5_"  style="overflow:visible;fill:#855814;"/>
		<clipPath id="SVGID_6_">
			<use xlink:href="#SVGID_5_"  style="overflow:visible;"/>
		</clipPath>
		<rect x="8.9" y="8.4" class="st2" width="123.8" height="104"/>
	</g>
	<g>
		<defs>
			<path id="SVGID_7_" d="M656.2,54.6c0-5.4,0.8-10.5,2.3-15.2c1.6-4.7,4.2-9.1,8-13.1c3.7-4,8.3-7.1,13.6-9.3
				c5.3-2.2,11.3-3.3,17.9-3.3c12.4,0,22.2,3.4,29.5,10.1c7.3,6.7,11,15.9,11,27.5c0,8.2-1.8,15.5-5.4,22.1
				c-3.6,6.5-8.7,11.6-15.4,15.2c-6.7,3.6-14.2,5.4-22.5,5.4c-5.9,0-11.3-1-16.3-3c-5-2-9.2-4.9-12.7-8.8c-3.5-3.9-6-8.4-7.6-13.6
				C657,63.5,656.2,58.8,656.2,54.6z M667.5,51c0,4.4,0.7,9.2,2.1,14.3c1.4,5.1,3.6,9.5,6.4,13.1c2.8,3.6,6.1,6.3,9.8,8.1
				c3.7,1.8,7.9,2.7,12.7,2.7c5.6,0,10.6-1.3,15-3.9c4.4-2.6,7.7-6.6,10-12c2.3-5.4,3.4-11.5,3.4-18.2c0-7.3-1.3-13.9-3.9-19.8
				c-2.6-5.9-6.3-10.2-11.1-12.9c-4.8-2.7-10.2-4-16-4c-8.8,0-15.7,2.8-20.8,8.3C670.1,32.1,667.5,40.2,667.5,51z"/>
		</defs>
		<use xlink:href="#SVGID_7_"  style="overflow:visible;fill:#855814;"/>
		<clipPath id="SVGID_8_">
			<use xlink:href="#SVGID_7_"  style="overflow:visible;"/>
		</clipPath>
		<rect x="155.2" y="6.5" class="st3" width="591.5" height="106.5"/>
	</g>
	<g>
		<defs>
			<path id="SVGID_9_" d="M587.7,15.6l0.4-0.4c9,0.3,14.2,0.4,15.5,0.4c1.2,0,6.4-0.1,15.6-0.4l0.4,0.4v2.7l-0.4,0.4
				c-2.5,0.1-4.4,0.2-5.8,0.3c-1.4,0.1-2.3,0.4-3,0.8c-0.6,0.4-1,1.3-1.2,2.8c-0.2,1.5-0.3,3.5-0.3,6.1l-0.1,12.5v24
				c0,6,0,10.2,0.1,12.6l0.3,9.4h11.1c8.8,0,14.4-0.1,16.5-0.3c2.2-0.2,4.3-0.7,6.3-1.6c0.4-0.9,1-3,1.7-6.2
				c0.7-3.3,1.1-5.1,1.2-5.7l0.5-0.4h2.7l0.4,0.4c-0.3,1.4-0.6,4.3-0.9,8.4c-0.3,4.2-0.5,7.5-0.5,10.1l-0.4,0.4
				c-6.9-0.2-15.9-0.3-27.1-0.3L604.8,92c-3.6,0-7.3,0.1-11.1,0.4l-0.4-0.4v-1.8l0.4-0.5c2.2-1.2,3.5-1.9,3.7-2.1
				c0.2-0.3,0.4-2.6,0.7-7c0.2-4.4,0.4-9.7,0.4-16V41.3l-0.1-10.6c0-4.1-0.1-6.8-0.3-8c-0.2-1.2-0.4-2-0.8-2.4c-0.3-0.4-1-0.7-2-1
				c-1-0.3-3.4-0.5-7.2-0.6l-0.4-0.4V15.6z"/>
		</defs>
		<use xlink:href="#SVGID_9_"  style="overflow:visible;fill:#855814;"/>
		<clipPath id="SVGID_10_">
			<use xlink:href="#SVGID_9_"  style="overflow:visible;"/>
		</clipPath>
		<rect x="125.3" y="11.3" class="st4" width="591.5" height="106.5"/>
	</g>
	<g>
		<defs>
			<path id="SVGID_11_" d="M453.7,15.6l0.4-0.4c12.4,0.2,20.4,0.3,23.9,0.3c11.9,0,22.5-0.1,31.7-0.3l0.3,0.4
				c-0.9,3.5-1.6,8.9-2,16.4l-0.3,0.4H505l-0.5-0.4c0-0.3,0.1-0.6,0.1-0.9c0-3.1-0.2-6-0.7-8.8c-2.3-1-5.4-1.7-9.5-2
				c-4-0.3-7.1-0.5-9.1-0.5c-2.9,0-6.5,0.2-11,0.6l-0.2,8.7l-0.2,9.9l-0.2,11c3.9,0.2,7.5,0.3,10.8,0.3c3.3,0,6.1-0.1,8.4-0.3
				c2.2-0.2,3.6-0.4,3.9-0.7c0.4-0.2,0.7-0.7,0.9-1.4c0.2-0.7,0.4-1.9,0.5-3.6l0.2-3.4l0.4-0.4h2.5l0.4,0.4
				c-0.1,3.9-0.2,7.9-0.3,11.9l0.3,12.2l-0.4,0.4h-2.5l-0.4-0.4l-0.4-3.3c-0.3-2.5-0.6-4-0.7-4.5c-0.1-0.5-0.5-0.9-1-1.3
				c-0.5-0.4-1.9-0.7-4-0.9c-2.2-0.2-5.2-0.3-9-0.3c-2.1,0-5.3,0.1-9.6,0.3c-0.2,3-0.3,8.1-0.3,15.2c0,7.6,0.1,13.2,0.3,16.8h10
				c8.8,0,14.3-0.1,16.5-0.3c2.2-0.2,4.3-0.7,6.3-1.6c0.3-0.8,0.9-2.8,1.6-5.8c0.7-3,1.2-4.9,1.3-5.7l0.5-0.4h2.6l0.4,0.4
				c-0.3,1.6-0.6,4.3-1,8.1c-0.3,3.9-0.5,7.2-0.5,9.9l-0.4,0.4c-6.9-0.2-16-0.3-27.2-0.3L469.3,92c-3.4,0-7,0.1-10.8,0.4l-0.4-0.4
				v-1.8l0.4-0.5c2.1-1.1,3.4-1.8,3.7-2c0.3-0.3,0.6-3.4,0.8-9.5c0.2-6.1,0.3-10.7,0.3-13.9V44.3L463.2,32c0-2.7,0-4.9-0.1-6.5
				c-0.1-1.7-0.2-2.9-0.4-3.6c-0.2-0.7-0.4-1.2-0.6-1.5c-0.2-0.3-0.6-0.5-1.1-0.7c-0.5-0.2-1.4-0.4-2.7-0.5l-4.1-0.3l-0.4-0.4V15.6z
				"/>
		</defs>
		<use xlink:href="#SVGID_11_"  style="overflow:visible;fill:#855814;"/>
		<clipPath id="SVGID_12_">
			<use xlink:href="#SVGID_11_"  style="overflow:visible;"/>
		</clipPath>
		<rect x="134.3" y="0.6" class="st5" width="591.5" height="106.5"/>
	</g>
	<g>
		<defs>
			<path id="SVGID_13_" d="M519.7,16.3l0.4-0.4c9,0.3,14.2,0.4,15.5,0.4c1.2,0,6.4-0.1,15.6-0.4l0.4,0.4V19l-0.4,0.4
				c-2.5,0.1-4.4,0.2-5.8,0.3c-1.4,0.1-2.3,0.4-3,0.8c-0.6,0.4-1,1.3-1.2,2.8c-0.2,1.5-0.3,3.5-0.3,6.1l-0.1,12.5v24
				c0,6,0,10.2,0.1,12.6l0.3,9.4h11.1c8.8,0,14.4-0.1,16.5-0.3c2.2-0.2,4.3-0.7,6.3-1.6c0.4-0.9,1-3,1.7-6.2
				c0.7-3.3,1.1-5.1,1.2-5.7l0.5-0.4h2.7l0.4,0.4c-0.3,1.4-0.6,4.3-0.9,8.4c-0.3,4.2-0.5,7.5-0.5,10.1l-0.4,0.4
				c-6.9-0.2-15.9-0.3-27.1-0.3l-15.9-0.1c-3.6,0-7.3,0.1-11.1,0.4l-0.4-0.4v-1.8l0.4-0.5c2.2-1.2,3.5-1.9,3.7-2.1
				c0.2-0.3,0.4-2.6,0.7-7c0.2-4.4,0.4-9.7,0.4-16V41.9l-0.1-10.6c0-4.1-0.1-6.8-0.3-8c-0.2-1.2-0.4-2-0.8-2.4c-0.3-0.4-1-0.7-2-1
				c-1-0.3-3.4-0.5-7.2-0.6l-0.4-0.4V16.3z"/>
		</defs>
		<use xlink:href="#SVGID_13_"  style="overflow:visible;fill:#855814;"/>
		<clipPath id="SVGID_14_">
			<use xlink:href="#SVGID_13_"  style="overflow:visible;"/>
		</clipPath>
		<rect x="128" y="5.1" class="st6" width="591.5" height="106.5"/>
	</g>
	<g>
		<defs>
			<path id="SVGID_15_" d="M233.5,82.9l-2.1,5.1c-8,4.1-16.6,6.1-25.8,6.1c-13.1,0-23.7-3.7-31.9-11.1c-8.2-7.4-12.3-17.1-12.3-29.1
				c0-8.3,2-15.5,6.1-21.7c4.1-6.2,9.5-10.8,16.1-13.9c6.7-3.1,14.2-4.6,22.5-4.6c4.8,0,9.6,0.5,14.3,1.5c4.7,1,8.6,2.2,11.8,3.6
				l0.4,0.5c-0.8,2-1.6,7-2.3,15l-0.4,0.4h-2.6l-0.4-0.4l-0.5-9.2c-2.6-2.1-5.8-3.7-9.6-4.9c-3.7-1.2-7.7-1.8-11.7-1.8
				c-6.1,0-11.6,1.3-16.5,3.9c-4.9,2.6-8.6,6.4-11.3,11.4c-2.7,5-4,11.1-4,18.3c0,7.2,1.6,13.6,4.7,19.1c3.2,5.5,7.5,9.7,12.9,12.6
				c5.5,2.9,11.8,4.4,19.1,4.4c3.2,0,6.3-0.3,9.3-0.9c3-0.6,5.4-1.4,7.4-2.3c2-0.9,3.9-2,5.7-3.3L233.5,82.9z"/>
		</defs>
		<use xlink:href="#SVGID_15_"  style="overflow:visible;fill:#855814;"/>
		<clipPath id="SVGID_16_">
			<use xlink:href="#SVGID_15_"  style="overflow:visible;"/>
		</clipPath>
		<rect x="128" y="-2" class="st7" width="591.5" height="106.5"/>
	</g>
	<g>
		<defs>
			<path id="SVGID_17_" d="M239,92.4l-0.5-0.4v-2.8l0.5-0.4c2.6,0,4.3-0.2,5.1-0.4c0.8-0.2,1.4-0.7,2-1.4c0.6-0.7,1.8-3,3.6-6.9
				l5.7-12.4l14.8-33.5c2.8-6.6,5.6-13.1,8.3-19.7h3.5L305.3,69l3.1,7.3c0.9,2.1,1.9,4.3,3.1,6.7c1.2,2.4,2,3.9,2.4,4.3
				c0.5,0.4,1,0.8,1.7,1c0.7,0.2,2.2,0.4,4.5,0.4l0.4,0.4V92l-0.4,0.4c-3.8-0.3-7.3-0.5-10.4-0.5c-6,0.2-12,0.3-18,0.5l-0.4-0.4
				v-2.8l0.4-0.4c4.1-0.1,6.6-0.2,7.6-0.5c1-0.3,1.5-0.9,1.5-1.9c0-0.8-0.3-1.8-0.8-3.2l-6.7-16.6h-31.5L256,80.5
				c-1.1,2.5-1.6,4.3-1.6,5.5c0,0.9,0.5,1.6,1.5,2c1,0.4,3.4,0.7,7.4,0.7l0.5,0.4V92l-0.4,0.4c-4.7-0.3-8.8-0.4-12.3-0.4
				C247.1,92,243,92.2,239,92.4z M263.7,62h27.5l-13.6-32.8L263.7,62z"/>
		</defs>
		<use xlink:href="#SVGID_17_"  style="overflow:visible;fill:#855814;"/>
		<clipPath id="SVGID_18_">
			<use xlink:href="#SVGID_17_"  style="overflow:visible;"/>
		</clipPath>
		<rect x="128" y="-6.7" class="st8" width="591.5" height="106.5"/>
	</g>
	<g>
		<defs>
			<path id="SVGID_19_" d="M327.4,73.6l0.4-0.4h2.7l0.4,0.4c0.2,4.6,0.4,7.5,0.7,8.5c0.3,1,1.3,2.1,2.9,3.3c1.6,1.1,3.8,2.1,6.6,2.8
				c2.7,0.7,5.5,1.1,8.3,1.1c3.8,0,7.3-0.7,10.3-2.1c3.1-1.4,5.4-3.5,7.1-6.2c1.7-2.7,2.6-5.8,2.6-9.2c0-2.4-0.4-4.5-1.2-6.2
				c-0.8-1.8-2-3.2-3.4-4.3c-1.5-1.1-3.1-1.9-5-2.4c-1.9-0.5-4.7-1.1-8.4-1.7c-3.6-0.6-6.5-1.1-8.5-1.6c-2-0.5-4.1-1.2-6.1-2.2
				c-2-1-3.7-2.2-5.1-3.7c-1.4-1.5-2.4-3.3-3.3-5.5c-0.8-2.2-1.2-4.5-1.2-7c0-6.8,2.4-12.3,7.1-16.7c4.7-4.3,11-6.5,19-6.5
				c3.2,0,6.6,0.4,10.3,1.2c3.7,0.8,7.1,1.9,10.1,3.5l0.4,0.7c-0.8,3.3-1.3,8.1-1.5,14.2l-0.5,0.4h-2.8l-0.4-0.4
				c-0.1-4.3-0.2-7.1-0.3-8.2c-0.1-1.1-1.8-2.5-4.9-4.2c-3.2-1.7-6.6-2.5-10.3-2.5c-3.1,0-6,0.6-8.6,1.8c-2.7,1.2-4.7,3.2-6.1,5.8
				c-1.4,2.6-2.1,5.3-2.1,8.1c0,2.1,0.4,4,1.2,5.7c0.8,1.6,1.9,3,3.2,3.9c1.3,1,2.9,1.7,4.6,2.1c1.8,0.5,5,1.1,9.6,1.7
				c6.4,0.9,11.1,2,14,3.3c2.9,1.3,5.3,3.3,7,6.1c1.8,2.8,2.6,6.2,2.6,10.1c0,7.7-3.1,14.1-9.4,19.3c-6.3,5.1-13.9,7.7-22.8,7.7
				c-7.5,0-14.1-1.3-19.7-4l-0.3-0.7C327,87.3,327.2,82,327.4,73.6z"/>
		</defs>
		<use xlink:href="#SVGID_19_"  style="overflow:visible;fill:#855814;"/>
		<clipPath id="SVGID_20_">
			<use xlink:href="#SVGID_19_"  style="overflow:visible;"/>
		</clipPath>
		<rect x="128" y="-6.3" class="st9" width="591.5" height="106.5"/>
	</g>
	<g>
		<defs>
			<path id="SVGID_21_" d="M447.1,14.6l0.5,0.5c-0.3,3.3-0.5,8.9-0.5,17.1l-0.4,0.4h-2.6l-0.4-0.5l-0.6-5c-0.3-2.7-0.5-4.3-0.7-4.9
				c-0.2-0.6-0.4-1-0.8-1.3c-0.4-0.3-1.5-0.5-3.5-0.7c-2-0.2-4.2-0.3-6.7-0.3h-10.3c-0.3,8.2-0.4,12.9-0.4,14.2v31.7l0.1,10.6
				c0,4.1,0.1,6.7,0.3,8c0.2,1.2,0.4,2,0.8,2.4c0.3,0.4,1,0.7,2,1c1,0.3,3.4,0.5,7.3,0.6l0.4,0.3v2.7l-0.4,0.4
				c-9.3-0.3-14.5-0.4-15.5-0.4c-1.2,0-6.3,0.1-15.5,0.4l-0.4-0.4v-2.7l0.4-0.3c3.4-0.1,5.7-0.3,6.8-0.5c1.1-0.2,1.8-0.5,2.2-0.8
				c0.4-0.3,0.7-1.1,1-2.2c0.3-1.1,0.4-3.6,0.4-7.5l0.1-11.5V34.1c0-0.6-0.1-5.3-0.4-14.2H402c-3.3,0-6.2,0.1-8.6,0.2
				c-2.4,0.1-3.8,0.5-4.2,1.1c-0.4,0.6-0.7,2.5-1.1,5.8l-0.5,5l-0.5,0.5h-2.5l-0.4-0.4c-0.1-8.7-0.2-14.4-0.5-17.1l0.5-0.5
				c6.3,0.3,16.8,0.4,31.5,0.4C430.6,15,441.1,14.9,447.1,14.6z"/>
		</defs>
		<use xlink:href="#SVGID_21_"  style="overflow:visible;fill:#855814;"/>
		<clipPath id="SVGID_22_">
			<use xlink:href="#SVGID_21_"  style="overflow:visible;"/>
		</clipPath>
		<rect x="128" y="-3.4" class="st10" width="591.5" height="106.5"/>
	</g>
	<g>
		<defs>
			<path id="SVGID_23_" d="M554.9,135v-0.7l0.1-0.1c0.8,0,1.4-0.1,1.7-0.1c0.3-0.1,0.5-0.1,0.6-0.3c0.1-0.1,0.2-0.3,0.2-0.6
				c0-0.3,0.1-1,0.1-2.1c0-1.1,0-2.1,0-2.8v-6.6c0-1,0-2,0-3.1c0-1.1-0.1-1.8-0.1-2c-0.1-0.2-0.1-0.4-0.2-0.4
				c-0.1-0.1-0.3-0.2-0.6-0.2c-0.3-0.1-0.9-0.1-1.7-0.1l-0.1-0.1V115l0.1-0.1c0,0,0.7,0,1.9,0.1c1.1,0,1.9,0.1,2.3,0.1
				c0.2,0,1.6,0,4-0.1l0.1,0.1v0.7l-0.1,0.1c-0.8,0-1.4,0.1-1.7,0.1c-0.3,0.1-0.5,0.1-0.6,0.3c-0.1,0.1-0.2,0.3-0.2,0.6
				c0,0.3-0.1,1-0.1,2.2c0,1.2,0,2.1,0,2.8v10.9l0.2,0.1c2-2.9,4.3-6.3,6.8-10.3c2.5-4,4.1-6.5,4.7-7.6c1,0.1,1.9,0.1,2.8,0.1
				c1,0,1.9,0,2.8-0.1l0.1,0.1v0.7l-0.1,0.1c-0.9,0-1.5,0.1-1.8,0.1c-0.3,0.1-0.5,0.1-0.6,0.2c-0.1,0.1-0.2,0.3-0.2,0.5
				c0,0.2-0.1,0.9-0.1,2.2c0,1.2,0,2.2,0,2.9v6.6c0,0.8,0,1.7,0,2.8c0,1.1,0,1.8,0.1,2.1c0,0.3,0.1,0.5,0.2,0.6
				c0.1,0.1,0.3,0.2,0.7,0.3c0.3,0.1,0.9,0.1,1.7,0.1l0.1,0.1v0.7l-0.1,0.1c0,0-0.7,0-1.9-0.1c-1.1,0-1.9-0.1-2.3-0.1
				c-0.3,0-1.6,0-4,0.1l-0.1-0.1v-0.7l0.1-0.1c0.8,0,1.4-0.1,1.7-0.1c0.3-0.1,0.5-0.1,0.6-0.3c0.1-0.1,0.2-0.3,0.2-0.6
				c0-0.3,0.1-1,0.1-2.2c0-1.2,0-2.1,0-2.8l0-10.6l-0.3-0.1c-0.8,1.2-2.7,4.1-5.8,8.7l-5.7,8.9c-0.8-0.1-1.7-0.1-2.8-0.1
				c-0.7,0-1.6,0-2.7,0.1L554.9,135z"/>
		</defs>
		<use xlink:href="#SVGID_23_"  style="overflow:visible;fill:#855814;"/>
		<clipPath id="SVGID_24_">
			<use xlink:href="#SVGID_23_"  style="overflow:visible;"/>
		</clipPath>
		<rect x="113" y="66.3" class="st11" width="540.6" height="97.3"/>
	</g>
	<g>
		<defs>
			<path id="SVGID_25_" d="M587.6,124.6c-2.1-0.4-3.6-1-4.5-1.9c-0.9-0.9-1.4-2-1.4-3.3c0-0.8,0.2-1.5,0.5-2.1
				c0.3-0.6,0.8-1.1,1.5-1.6c0.6-0.4,1.3-0.7,2.2-0.8c0.8-0.1,1.7-0.2,2.8-0.2c0.7,0,1.6,0,2.5,0.1c1.2,0,1.9,0.1,2.2,0.1
				c0.9,0,2.2,0,3.9-0.1l0.1,0.1v0.7l-0.1,0.1c-0.9,0-1.4,0.1-1.8,0.1c-0.3,0.1-0.5,0.1-0.6,0.3c-0.1,0.1-0.2,0.3-0.2,0.6
				c0,0.3-0.1,1-0.1,2.2c0,1.2,0,2.1,0,2.8v6.6c0,0.7,0,1.7,0,2.8c0,1.1,0,1.8,0.1,2.1c0,0.3,0.1,0.5,0.2,0.6
				c0.1,0.1,0.3,0.2,0.7,0.3c0.3,0.1,0.9,0.1,1.7,0.1l0.1,0.1v0.7l-0.1,0.1c-0.1,0-0.7,0-1.9-0.1c-1.1,0-1.9-0.1-2.3-0.1
				c-0.2,0-1.5,0-4,0.1l-0.1-0.1V134l0.1-0.1c1,0,1.6-0.1,1.8-0.1c0.3-0.1,0.5-0.1,0.5-0.2c0.1-0.1,0.2-0.3,0.2-0.5
				c0-0.2,0.1-1,0.1-2.2c0-1.2,0-2.2,0-2.9v-11.9l-0.1-0.1c-0.9,0-1.6-0.1-2.1-0.1c-3.3,0-5,1.2-5,3.7c0,1.3,0.5,2.4,1.6,3.3
				c1,0.9,2.7,1.3,5.1,1.3v0.4c-1.4,1.5-4.2,4.9-8.4,10.2c-1-0.1-1.7-0.1-2.2-0.1c-0.6,0-1.4,0-2.2,0.1l-0.1-0.1V134l0.1-0.1
				c0.7,0,1.1-0.1,1.4-0.2c0.2-0.1,0.6-0.4,1.1-1c0.5-0.6,1.6-1.8,3.2-3.9C585.8,126.9,586.9,125.5,587.6,124.6z"/>
		</defs>
		<use xlink:href="#SVGID_25_"  style="overflow:visible;fill:#855814;"/>
		<clipPath id="SVGID_26_">
			<use xlink:href="#SVGID_25_"  style="overflow:visible;"/>
		</clipPath>
		<rect x="113.1" y="76.1" class="st12" width="540.6" height="97.3"/>
	</g>
	<g>
		<defs>
			<path id="SVGID_27_" d="M179.4,132.3l-0.5,1.3c-2.1,1.1-4.4,1.6-6.8,1.6c-3.4,0-6.2-1-8.4-2.9c-2.1-1.9-3.2-4.5-3.2-7.6
				c0-2.2,0.5-4.1,1.6-5.7c1.1-1.6,2.5-2.8,4.2-3.6c1.8-0.8,3.7-1.2,5.9-1.2c1.3,0,2.5,0.1,3.7,0.4c1.2,0.3,2.3,0.6,3.1,1l0.1,0.1
				c-0.2,0.5-0.4,1.8-0.6,3.9l-0.1,0.1h-0.7l-0.1-0.1l-0.1-2.4c-0.7-0.6-1.5-1-2.5-1.3c-1-0.3-2-0.5-3.1-0.5c-1.6,0-3,0.3-4.3,1
				c-1.3,0.7-2.3,1.7-3,3c-0.7,1.3-1.1,2.9-1.1,4.8c0,1.9,0.4,3.6,1.2,5c0.8,1.4,2,2.5,3.4,3.3c1.4,0.8,3.1,1.2,5,1.2
				c0.8,0,1.7-0.1,2.4-0.2c0.8-0.2,1.4-0.4,1.9-0.6c0.5-0.2,1-0.5,1.5-0.9L179.4,132.3z"/>
		</defs>
		<use xlink:href="#SVGID_27_"  style="overflow:visible;fill:#855814;"/>
		<clipPath id="SVGID_28_">
			<use xlink:href="#SVGID_27_"  style="overflow:visible;"/>
		</clipPath>
		<rect x="109.4" y="72.2" class="st13" width="540.6" height="97.3"/>
	</g>
	<g>
		<defs>
			<path id="SVGID_29_" d="M197.4,114.6l0.1,0.1c-0.1,0.9-0.1,2.3-0.1,4.5l-0.1,0.1h-0.7l-0.1-0.1l-0.2-1.3
				c-0.1-0.7-0.1-1.1-0.2-1.3c0-0.2-0.1-0.3-0.2-0.3c-0.1-0.1-0.4-0.1-0.9-0.2c-0.5,0-1.1-0.1-1.8-0.1h-2.7
				c-0.1,2.1-0.1,3.4-0.1,3.7v8.3l0,2.8c0,1.1,0,1.8,0.1,2.1c0,0.3,0.1,0.5,0.2,0.6c0.1,0.1,0.3,0.2,0.5,0.3
				c0.3,0.1,0.9,0.1,1.9,0.2l0.1,0.1v0.7l-0.1,0.1c-2.4-0.1-3.8-0.1-4.1-0.1c-0.3,0-1.7,0-4.1,0.1l-0.1-0.1V134l0.1-0.1
				c0.9,0,1.5-0.1,1.8-0.1c0.3-0.1,0.5-0.1,0.6-0.2c0.1-0.1,0.2-0.3,0.2-0.6c0.1-0.3,0.1-1,0.1-2l0-3v-8.3c0-0.2,0-1.4-0.1-3.7h-2.1
				c-0.9,0-1.6,0-2.3,0.1c-0.6,0-1,0.1-1.1,0.3c-0.1,0.2-0.2,0.7-0.3,1.5l-0.1,1.3l-0.1,0.1H181l-0.1-0.1c0-2.3-0.1-3.8-0.1-4.5
				l0.1-0.1c1.7,0.1,4.4,0.1,8.3,0.1C193,114.7,195.8,114.7,197.4,114.6z"/>
		</defs>
		<use xlink:href="#SVGID_29_"  style="overflow:visible;fill:#855814;"/>
		<clipPath id="SVGID_30_">
			<use xlink:href="#SVGID_29_"  style="overflow:visible;"/>
		</clipPath>
		<rect x="109.4" y="76" class="st14" width="540.6" height="97.3"/>
	</g>
	<g>
		<defs>
			<path id="SVGID_31_" d="M198.9,114.6c2.4,0.1,3.9,0.1,4.6,0.1c0.9,0,1.9,0,3-0.1c1.2,0,1.9-0.1,2.2-0.1c1.3,0,2.4,0.1,3.3,0.4
				c0.9,0.3,1.6,0.8,2.2,1.5c0.6,0.7,0.9,1.6,0.9,2.7c0,0.9-0.2,1.7-0.6,2.5c-0.4,0.8-1,1.5-1.7,2c-0.7,0.6-1.4,1-2.2,1.2
				c-0.7,0.2-1.5,0.4-2.3,0.4c-0.6,0-1.2-0.1-2-0.2l-0.2-0.9l0.1-0.1c0.7,0.2,1.3,0.2,1.7,0.2c1.2,0,2.2-0.4,3-1.2
				c0.8-0.8,1.1-1.9,1.1-3.2c0-1.3-0.4-2.3-1.2-3.1c-0.8-0.8-2-1.2-3.6-1.2c-0.9,0-1.8,0.2-2.9,0.5c-0.1,0.7-0.1,2.5-0.1,5.3v6.6
				l0,2.8c0,1.1,0,1.8,0.1,2.1c0,0.3,0.1,0.5,0.2,0.6c0.1,0.1,0.3,0.2,0.5,0.3c0.3,0.1,0.9,0.1,1.9,0.2l0.1,0.1v0.7l-0.1,0.1
				c-2.4-0.1-3.8-0.1-4.1-0.1c-0.3,0-1.7,0-4.1,0.1l-0.1-0.1V134l0.1-0.1c0.9,0,1.5-0.1,1.8-0.1c0.3-0.1,0.5-0.1,0.6-0.2
				c0.1-0.1,0.2-0.3,0.2-0.6c0.1-0.3,0.1-1,0.1-2l0-3v-6.6l0-2.8c0-1.1,0-1.8-0.1-2.1c0-0.3-0.1-0.5-0.2-0.6
				c-0.1-0.1-0.3-0.2-0.5-0.3c-0.3-0.1-0.9-0.1-1.9-0.2l-0.1-0.1v-0.7L198.9,114.6z"/>
		</defs>
		<use xlink:href="#SVGID_31_"  style="overflow:visible;fill:#855814;"/>
		<clipPath id="SVGID_32_">
			<use xlink:href="#SVGID_31_"  style="overflow:visible;"/>
		</clipPath>
		<rect x="109.4" y="76" class="st15" width="540.6" height="97.3"/>
	</g>
	<g>
		<defs>
			<path id="SVGID_33_" d="M216.4,124.9c0-1.4,0.2-2.8,0.6-4c0.4-1.2,1.1-2.4,2.1-3.4c1-1,2.2-1.9,3.6-2.4c1.4-0.6,3-0.9,4.7-0.9
				c3.2,0,5.8,0.9,7.7,2.6c1.9,1.8,2.9,4.2,2.9,7.2c0,2.1-0.5,4.1-1.4,5.8c-0.9,1.7-2.3,3-4,4c-1.8,1-3.7,1.4-5.9,1.4
				c-1.5,0-3-0.3-4.3-0.8c-1.3-0.5-2.4-1.3-3.3-2.3c-0.9-1-1.6-2.2-2-3.6C216.6,127.3,216.4,126,216.4,124.9z M219.3,124
				c0,1.2,0.2,2.4,0.6,3.7c0.4,1.3,0.9,2.5,1.7,3.4c0.7,1,1.6,1.7,2.6,2.1c1,0.5,2.1,0.7,3.3,0.7c1.5,0,2.8-0.3,3.9-1
				c1.1-0.7,2-1.7,2.6-3.1c0.6-1.4,0.9-3,0.9-4.8c0-1.9-0.3-3.7-1-5.2c-0.7-1.5-1.7-2.7-2.9-3.4c-1.3-0.7-2.7-1.1-4.2-1.1
				c-2.3,0-4.1,0.7-5.5,2.2C220,119,219.3,121.2,219.3,124z"/>
		</defs>
		<use xlink:href="#SVGID_33_"  style="overflow:visible;fill:#855814;"/>
		<clipPath id="SVGID_34_">
			<use xlink:href="#SVGID_33_"  style="overflow:visible;"/>
		</clipPath>
		<rect x="109.4" y="71.5" class="st16" width="540.6" height="97.3"/>
	</g>
	<g>
		<defs>
			<path id="SVGID_35_" d="M239.4,134.8V134l0.1-0.1c0.8,0,1.4-0.1,1.7-0.1c0.3-0.1,0.5-0.1,0.6-0.3c0.1-0.1,0.2-0.3,0.2-0.6
				c0-0.3,0.1-1,0.1-2.1c0-1.1,0-2.1,0-2.8v-6.6c0-1,0-2,0-3.1c0-1.1-0.1-1.8-0.1-2c-0.1-0.2-0.1-0.4-0.2-0.4
				c-0.1-0.1-0.3-0.2-0.6-0.2c-0.3-0.1-0.9-0.1-1.7-0.1l-0.1-0.1v-0.7l0.1-0.1c0,0,0.7,0,1.9,0.1c1.1,0,1.9,0.1,2.3,0.1
				c0.2,0,1.6,0,4-0.1l0.1,0.1v0.7l-0.1,0.1c-0.8,0-1.4,0.1-1.7,0.1c-0.3,0.1-0.5,0.1-0.6,0.3c-0.1,0.1-0.2,0.3-0.2,0.6
				c0,0.3-0.1,1-0.1,2.2c0,1.2,0,2.1,0,2.8v10.9l0.2,0.1c2-2.9,4.3-6.3,6.8-10.3c2.5-4,4.1-6.5,4.7-7.6c1,0.1,1.9,0.1,2.8,0.1
				c1,0,1.9,0,2.8-0.1l0.1,0.1v0.7l-0.1,0.1c-0.9,0-1.5,0.1-1.8,0.1c-0.3,0.1-0.5,0.1-0.6,0.2c-0.1,0.1-0.2,0.3-0.2,0.5
				c0,0.2-0.1,0.9-0.1,2.2c0,1.2,0,2.2,0,2.9v6.6c0,0.8,0,1.7,0,2.8c0,1.1,0,1.8,0.1,2.1c0,0.3,0.1,0.5,0.2,0.6
				c0.1,0.1,0.3,0.2,0.7,0.3c0.3,0.1,0.9,0.1,1.7,0.1l0.1,0.1v0.7l-0.1,0.1c0,0-0.7,0-1.9-0.1c-1.1,0-1.9-0.1-2.3-0.1
				c-0.3,0-1.6,0-4,0.1l-0.1-0.1V134l0.1-0.1c0.8,0,1.4-0.1,1.7-0.1c0.3-0.1,0.5-0.1,0.6-0.3c0.1-0.1,0.2-0.3,0.2-0.6
				c0-0.3,0.1-1,0.1-2.2c0-1.2,0-2.1,0-2.8l0-10.6l-0.3-0.1c-0.8,1.2-2.7,4.1-5.8,8.7l-5.7,8.9c-0.8-0.1-1.7-0.1-2.8-0.1
				c-0.7,0-1.6,0-2.7,0.1L239.4,134.8z"/>
		</defs>
		<use xlink:href="#SVGID_35_"  style="overflow:visible;fill:#855814;"/>
		<clipPath id="SVGID_36_">
			<use xlink:href="#SVGID_35_"  style="overflow:visible;"/>
		</clipPath>
		<rect x="113" y="76.1" class="st17" width="540.6" height="97.3"/>
	</g>
	<g>
		<defs>
			<path id="SVGID_37_" d="M280.2,114.6l0.1,0.1c-0.1,0.9-0.1,2.3-0.1,4.5l-0.1,0.1h-0.7l-0.1-0.1l-0.2-1.3
				c-0.1-0.7-0.1-1.1-0.2-1.3c0-0.2-0.1-0.3-0.2-0.3c-0.1-0.1-0.4-0.1-0.9-0.2c-0.5,0-1.1-0.1-1.8-0.1h-2.7
				c-0.1,2.1-0.1,3.4-0.1,3.7v8.3l0,2.8c0,1.1,0,1.8,0.1,2.1c0,0.3,0.1,0.5,0.2,0.6c0.1,0.1,0.3,0.2,0.5,0.3
				c0.3,0.1,0.9,0.1,1.9,0.2l0.1,0.1v0.7l-0.1,0.1c-2.4-0.1-3.8-0.1-4.1-0.1c-0.3,0-1.7,0-4.1,0.1l-0.1-0.1V134l0.1-0.1
				c0.9,0,1.5-0.1,1.8-0.1c0.3-0.1,0.5-0.1,0.6-0.2c0.1-0.1,0.2-0.3,0.2-0.6c0.1-0.3,0.1-1,0.1-2l0-3v-8.3c0-0.2,0-1.4-0.1-3.7h-2.1
				c-0.9,0-1.6,0-2.3,0.1c-0.6,0-1,0.1-1.1,0.3c-0.1,0.2-0.2,0.7-0.3,1.5l-0.1,1.3l-0.1,0.1h-0.7l-0.1-0.1c0-2.3-0.1-3.8-0.1-4.5
				l0.1-0.1c1.7,0.1,4.4,0.1,8.3,0.1C275.8,114.7,278.6,114.7,280.2,114.6z"/>
		</defs>
		<use xlink:href="#SVGID_37_"  style="overflow:visible;fill:#855814;"/>
		<clipPath id="SVGID_38_">
			<use xlink:href="#SVGID_37_"  style="overflow:visible;"/>
		</clipPath>
		<rect x="111.7" y="83.2" class="st18" width="540.6" height="97.3"/>
	</g>
	<g>
		<defs>
			<path id="SVGID_39_" d="M281.9,114.7l0.1-0.1c3.3,0.1,5.3,0.1,6.3,0.1c3.1,0,5.9,0,8.3-0.1l0.1,0.1c-0.2,0.9-0.4,2.3-0.5,4.3
				l-0.1,0.1h-0.7l-0.1-0.1c0-0.1,0-0.2,0-0.2c0-0.8-0.1-1.6-0.2-2.3c-0.6-0.3-1.4-0.4-2.5-0.5c-1.1-0.1-1.9-0.1-2.4-0.1
				c-0.8,0-1.7,0.1-2.9,0.2l-0.1,2.3l0,2.6l0,2.9c1,0.1,2,0.1,2.8,0.1c0.9,0,1.6,0,2.2-0.1c0.6-0.1,0.9-0.1,1-0.2
				c0.1-0.1,0.2-0.2,0.2-0.4c0.1-0.2,0.1-0.5,0.1-0.9l0.1-0.9l0.1-0.1h0.7l0.1,0.1c0,1,0,2.1-0.1,3.1l0.1,3.2l-0.1,0.1h-0.7
				l-0.1-0.1l-0.1-0.9c-0.1-0.7-0.1-1.1-0.2-1.2c0-0.1-0.1-0.2-0.3-0.3c-0.1-0.1-0.5-0.2-1.1-0.2c-0.6-0.1-1.4-0.1-2.4-0.1
				c-0.6,0-1.4,0-2.5,0.1c0,0.8-0.1,2.1-0.1,4c0,2,0,3.5,0.1,4.4h2.6c2.3,0,3.8,0,4.3-0.1c0.6-0.1,1.1-0.2,1.7-0.4
				c0.1-0.2,0.2-0.7,0.4-1.5c0.2-0.8,0.3-1.3,0.3-1.5l0.1-0.1h0.7l0.1,0.1c-0.1,0.4-0.2,1.1-0.2,2.1c-0.1,1-0.1,1.9-0.1,2.6
				l-0.1,0.1c-1.8-0.1-4.2-0.1-7.1-0.1l-3.9,0c-0.9,0-1.8,0-2.8,0.1l-0.1-0.1v-0.5l0.1-0.1c0.6-0.3,0.9-0.5,1-0.5
				c0.1-0.1,0.1-0.9,0.2-2.5c0.1-1.6,0.1-2.8,0.1-3.6v-5.2l0-3.2c0-0.7,0-1.3,0-1.7c0-0.4-0.1-0.8-0.1-0.9c0-0.2-0.1-0.3-0.2-0.4
				c-0.1-0.1-0.2-0.1-0.3-0.2c-0.1-0.1-0.4-0.1-0.7-0.1l-1.1-0.1l-0.1-0.1V114.7z"/>
		</defs>
		<use xlink:href="#SVGID_39_"  style="overflow:visible;fill:#855814;"/>
		<clipPath id="SVGID_40_">
			<use xlink:href="#SVGID_39_"  style="overflow:visible;"/>
		</clipPath>
		<rect x="109.4" y="86.2" class="st19" width="540.6" height="97.3"/>
	</g>
	<g>
		<defs>
			<path id="SVGID_41_" d="M298.3,134.8V134l0.1-0.1c0.8,0,1.3-0.1,1.6-0.3c0.3-0.2,0.7-0.6,1.2-1.3c0.8-1.1,2.3-3.3,4.8-6.8
				l3.8-5.5c1.2-1.7,1.8-2.7,2-3c0.1-0.2,0.2-0.4,0.2-0.6c0-0.3-0.2-0.5-0.6-0.7c-0.4-0.1-1.4-0.2-3.2-0.3l-0.1-0.1v-0.7l0.1-0.1
				c0.2,0,0.7,0,1.6,0.1c0.9,0,1.8,0.1,2.5,0.1c0.8,0,1.6,0,2.4-0.1l1.6-0.1l0.1,0.1c0,0.4,0,0.9-0.1,1.6l0,2.4v9.4
				c0,0.8,0,1.7,0,2.8c0,1.1,0,1.8,0.1,2.1c0,0.3,0.1,0.5,0.2,0.6c0.1,0.1,0.3,0.2,0.7,0.3c0.3,0.1,0.9,0.1,1.7,0.1l0.1,0.1v0.7
				l-0.1,0.1c-0.1,0-0.7,0-1.9-0.1c-1.1,0-1.9-0.1-2.3-0.1c-0.2,0-1.5,0-4,0.1l-0.1-0.1V134l0.1-0.1c0.8,0,1.4-0.1,1.7-0.1
				c0.3-0.1,0.6-0.1,0.7-0.3c0.1-0.1,0.2-0.3,0.2-0.6c0-0.3,0.1-1,0.1-2.2c0-1.1,0-2,0-2.7v-11.6h-0.4l-5.1,7.9l-3.9,6.1
				c-1,1.6-1.5,2.4-1.6,2.6c0,0.1-0.1,0.3-0.1,0.3c0,0.4,0.3,0.6,0.9,0.6l1.1,0.1l0.1,0.1v0.7l-0.1,0.1c-1-0.1-1.9-0.1-2.8-0.1
				c-1.1,0-2.2,0-3.4,0.1L298.3,134.8z"/>
		</defs>
		<use xlink:href="#SVGID_41_"  style="overflow:visible;fill:#855814;"/>
		<clipPath id="SVGID_42_">
			<use xlink:href="#SVGID_41_"  style="overflow:visible;"/>
		</clipPath>
		<rect x="109.4" y="76" class="st20" width="540.6" height="97.3"/>
	</g>
	<g>
		<defs>
			<path id="SVGID_43_" d="M320.7,134.8V134l0.1-0.1c0.8,0,1.4-0.1,1.7-0.1c0.3-0.1,0.5-0.1,0.6-0.3c0.1-0.1,0.2-0.3,0.2-0.6
				c0-0.3,0.1-1,0.1-2.1c0-1.1,0-2.1,0-2.8v-6.6c0-0.9,0-1.9,0-3.1c0-1.1-0.1-1.8-0.1-2c-0.1-0.2-0.1-0.4-0.2-0.5
				c-0.1-0.1-0.3-0.2-0.6-0.2c-0.3-0.1-0.9-0.1-1.8-0.1l-0.1-0.1v-0.7l0.1-0.1c0.1,0,0.7,0,1.9,0.1c1.1,0,1.9,0.1,2.3,0.1
				c0.2,0,1.6,0,4.1-0.1l0.1,0.1v0.7l-0.1,0.1c-1,0-1.6,0.1-1.8,0.1c-0.3,0.1-0.5,0.1-0.5,0.2c-0.1,0.1-0.2,0.3-0.2,0.5
				c0,0.2-0.1,0.9-0.1,2.1c0,1.2,0,2.2,0,2.9v1.8h1.7c1.5,0,2.8,0.1,3.9,0.2c1.1,0.1,2,0.4,2.8,0.8c0.8,0.4,1.4,1,1.9,1.7
				c0.4,0.7,0.7,1.5,0.7,2.3c0,1.1-0.3,2.3-1,3.3c-0.7,1.1-1.6,1.9-2.7,2.4c-1.1,0.6-2.6,0.8-4.6,0.8c-0.6,0-1.3,0-2.3-0.1
				c-0.9,0-1.6-0.1-2-0.1c-1.1,0-2.4,0-3.8,0.1L320.7,134.8z M326.3,124.4v7.3c0,0.7,0,1.2,0.1,1.4c0.1,0.2,0.1,0.4,0.2,0.5
				c0.1,0.1,0.3,0.2,0.6,0.2c0.3,0.1,0.7,0.1,1.2,0.1c1.4,0,2.5-0.2,3.3-0.6c0.8-0.4,1.4-1,1.9-1.8s0.6-1.6,0.6-2.7
				c0-0.8-0.1-1.5-0.4-2.1c-0.3-0.6-0.7-1.1-1.3-1.4c-0.6-0.4-1.2-0.6-1.9-0.7c-0.7-0.1-1.6-0.2-2.8-0.2H326.3z"/>
		</defs>
		<use xlink:href="#SVGID_43_"  style="overflow:visible;fill:#855814;"/>
		<clipPath id="SVGID_44_">
			<use xlink:href="#SVGID_43_"  style="overflow:visible;"/>
		</clipPath>
		<rect x="112.3" y="83" class="st21" width="540.6" height="97.3"/>
	</g>
	<g>
		<defs>
			<path id="SVGID_45_" d="M338.7,114.6c2.4,0.1,3.8,0.1,4.1,0.1c0.3,0,1.7,0,4.1-0.1l0.1,0.1v0.7l-0.1,0.1c-0.7,0-1.2,0-1.5,0.1
				c-0.4,0-0.6,0.1-0.8,0.2c-0.2,0.1-0.3,0.3-0.3,0.7c-0.1,0.4-0.1,0.9-0.1,1.6l0,3.3v2c2.1,0.1,4.1,0.1,5.9,0.1
				c2.5,0,4.5,0,5.8-0.1v-2l0-2.8c0-1.1,0-1.8-0.1-2.1c0-0.3-0.1-0.5-0.2-0.6c-0.1-0.1-0.3-0.2-0.5-0.3c-0.3-0.1-0.9-0.1-1.9-0.2
				l-0.1-0.1v-0.7l0.1-0.1c2.4,0.1,3.8,0.1,4.1,0.1c0.3,0,1.7,0,4.1-0.1l0.1,0.1v0.7l-0.1,0.1c-0.7,0-1.2,0-1.5,0.1
				c-0.4,0-0.6,0.1-0.8,0.2c-0.2,0.1-0.3,0.3-0.3,0.7c0,0.4-0.1,0.9-0.1,1.6l0,3.3v6.6l0,2.8c0,1.1,0,1.8,0.1,2.1
				c0,0.3,0.1,0.5,0.2,0.6c0.1,0.1,0.3,0.2,0.5,0.3c0.3,0.1,0.9,0.1,1.9,0.2l0.1,0.1v0.7l-0.1,0.1c-2.4-0.1-3.8-0.1-4.1-0.1
				c-0.3,0-1.7,0-4.1,0.1l-0.1-0.1V134l0.1-0.1c0.9,0,1.5-0.1,1.8-0.1c0.3-0.1,0.5-0.1,0.6-0.2c0.1-0.1,0.2-0.3,0.2-0.6
				c0.1-0.3,0.1-1,0.1-2l0-3v-3.2c-2.8-0.1-4.8-0.1-5.9-0.1c-1.2,0-3.1,0-5.8,0.1v3.2l0,2.8c0,1.1,0,1.8,0.1,2.1
				c0,0.3,0.1,0.5,0.2,0.6c0.1,0.1,0.3,0.2,0.5,0.3c0.3,0.1,0.9,0.1,1.9,0.2l0.1,0.1v0.7l-0.1,0.1c-2.4-0.1-3.8-0.1-4.1-0.1
				c-0.3,0-1.7,0-4.1,0.1l-0.1-0.1V134l0.1-0.1c0.9,0,1.5-0.1,1.8-0.1c0.3-0.1,0.5-0.1,0.6-0.2c0.1-0.1,0.2-0.3,0.2-0.6
				c0.1-0.3,0.1-1,0.1-2l0-3v-6.6l0-2.8c0-1.1,0-1.8-0.1-2.1c0-0.3-0.1-0.5-0.2-0.6c-0.1-0.1-0.3-0.2-0.5-0.3
				c-0.3-0.1-0.9-0.1-1.9-0.2l-0.1-0.1v-0.7L338.7,114.6z"/>
		</defs>
		<use xlink:href="#SVGID_45_"  style="overflow:visible;fill:#855814;"/>
		<clipPath id="SVGID_46_">
			<use xlink:href="#SVGID_45_"  style="overflow:visible;"/>
		</clipPath>
		<rect x="113" y="76" class="st22" width="540.6" height="97.3"/>
	</g>
	<g>
		<defs>
			<path id="SVGID_47_" d="M362.8,134.9l-0.1-0.1V134l0.1-0.1c0.7,0,1.1,0,1.3-0.1c0.2-0.1,0.4-0.2,0.5-0.4c0.2-0.2,0.5-0.8,0.9-1.8
				l1.5-3.2l3.9-8.8c0.7-1.7,1.5-3.4,2.2-5.2h0.9l6.1,14.3l0.8,1.9c0.2,0.5,0.5,1.1,0.8,1.8c0.3,0.6,0.5,1,0.6,1.1
				c0.1,0.1,0.3,0.2,0.4,0.3c0.2,0.1,0.6,0.1,1.2,0.1l0.1,0.1v0.7l-0.1,0.1c-1-0.1-1.9-0.1-2.7-0.1c-1.6,0-3.2,0.1-4.7,0.1l-0.1-0.1
				V134l0.1-0.1c1.1,0,1.7-0.1,2-0.1c0.3-0.1,0.4-0.2,0.4-0.5c0-0.2-0.1-0.5-0.2-0.8l-1.8-4.3h-8.3l-1.6,3.6
				c-0.3,0.7-0.4,1.1-0.4,1.4c0,0.2,0.1,0.4,0.4,0.5c0.3,0.1,0.9,0.2,1.9,0.2l0.1,0.1v0.7l-0.1,0.1c-1.2-0.1-2.3-0.1-3.2-0.1
				C364.9,134.8,363.8,134.8,362.8,134.9z M369.3,126.9h7.2l-3.6-8.6L369.3,126.9z"/>
		</defs>
		<use xlink:href="#SVGID_47_"  style="overflow:visible;fill:#855814;"/>
		<clipPath id="SVGID_48_">
			<use xlink:href="#SVGID_47_"  style="overflow:visible;"/>
		</clipPath>
		<rect x="111.9" y="66.6" class="st23" width="540.6" height="97.3"/>
	</g>
	<g>
		<defs>
			<path id="SVGID_49_" d="M393.8,124.6c-2.1-0.4-3.6-1-4.5-1.9s-1.4-2-1.4-3.3c0-0.8,0.2-1.5,0.5-2.1c0.3-0.6,0.8-1.1,1.5-1.6
				c0.6-0.4,1.3-0.7,2.2-0.8c0.8-0.1,1.7-0.2,2.8-0.2c0.7,0,1.6,0,2.5,0.1c1.2,0,1.9,0.1,2.2,0.1c0.9,0,2.2,0,3.9-0.1l0.1,0.1v0.7
				l-0.1,0.1c-0.9,0-1.4,0.1-1.8,0.1c-0.3,0.1-0.5,0.1-0.6,0.3c-0.1,0.1-0.2,0.3-0.2,0.6c0,0.3-0.1,1-0.1,2.2c0,1.2,0,2.1,0,2.8v6.6
				c0,0.7,0,1.7,0,2.8c0,1.1,0,1.8,0.1,2.1c0,0.3,0.1,0.5,0.2,0.6c0.1,0.1,0.3,0.2,0.7,0.3c0.3,0.1,0.9,0.1,1.7,0.1l0.1,0.1v0.7
				l-0.1,0.1c-0.1,0-0.7,0-1.9-0.1c-1.1,0-1.9-0.1-2.3-0.1c-0.2,0-1.5,0-4,0.1l-0.1-0.1V134l0.1-0.1c1,0,1.6-0.1,1.8-0.1
				c0.3-0.1,0.5-0.1,0.5-0.2c0.1-0.1,0.2-0.3,0.2-0.5c0-0.2,0.1-1,0.1-2.2c0-1.2,0-2.2,0-2.9v-11.9L398,116c-0.9,0-1.6-0.1-2.1-0.1
				c-3.3,0-5,1.2-5,3.7c0,1.3,0.5,2.4,1.6,3.3c1,0.9,2.7,1.3,5.1,1.3v0.4c-1.4,1.5-4.2,4.9-8.4,10.2c-1-0.1-1.7-0.1-2.2-0.1
				c-0.6,0-1.4,0-2.2,0.1l-0.1-0.1V134l0.1-0.1c0.7,0,1.1-0.1,1.4-0.2c0.2-0.1,0.6-0.4,1.1-1c0.5-0.6,1.6-1.8,3.2-3.9
				C392.1,126.9,393.2,125.5,393.8,124.6z"/>
		</defs>
		<use xlink:href="#SVGID_49_"  style="overflow:visible;fill:#855814;"/>
		<clipPath id="SVGID_50_">
			<use xlink:href="#SVGID_49_"  style="overflow:visible;"/>
		</clipPath>
		<rect x="109.4" y="76" class="st24" width="540.6" height="97.3"/>
	</g>
	<g>
		<defs>
			<path id="SVGID_51_" d="M417.9,124.4l1.3-1.1c0.3-0.2,0.6-0.6,1-0.9l1.2-1.2l3.2-3.2c1.4-1.4,2.1-2.2,2.3-2.4v-0.9l0.1-0.1
				c0.8,0,1.4,0.1,1.9,0.1l2.7,0l0.1,0.1v0.7l-0.1,0.1c-0.9,0-1.5,0.1-1.9,0.1c-0.4,0.1-0.9,0.3-1.3,0.6c-0.5,0.3-1.3,1-2.4,2
				l-5.7,5.2l8.8,8.3c1.3,1.2,2.1,1.9,2.3,2c0.2,0.1,0.6,0.2,1.1,0.2l0.1,0.1v0.6l-0.1,0.1c-1.7,0-2.8-0.1-3.1-0.1
				c-0.4,0-0.7-0.2-1.1-0.3c-0.4-0.2-3.8-3.3-10.4-9.3v3l0,2.8c0,1.1,0,1.8,0.1,2.1c0,0.3,0.1,0.5,0.2,0.6c0.1,0.1,0.3,0.2,0.5,0.3
				c0.3,0.1,0.9,0.1,1.9,0.2l0.1,0.1v0.7l-0.1,0.1c-0.1,0-1,0-2.5-0.1c-0.7,0-1.2,0-1.6,0c-0.2,0-1.5,0-4.1,0.1l-0.1-0.1V134
				l0.1-0.1c1.3,0,2.1-0.1,2.3-0.3c0.2-0.2,0.3-0.4,0.4-0.9c0-0.4,0.1-2,0.1-4.7v-6.6l0-2.8c0-1.1,0-1.8-0.1-2.1
				c0-0.3-0.1-0.5-0.2-0.6c-0.1-0.1-0.3-0.2-0.5-0.3c-0.3-0.1-0.9-0.1-1.9-0.2l-0.1-0.1v-0.7l0.1-0.1c2.3,0.1,3.7,0.1,4.1,0.1
				c0.4,0,1.8,0,4.1-0.1l0.1,0.1v0.7l-0.1,0.1c-0.9,0-1.5,0.1-1.8,0.1c-0.3,0.1-0.5,0.1-0.6,0.2c-0.1,0.1-0.2,0.3-0.2,0.6
				c-0.1,0.3-0.1,0.9-0.1,1.9l0,3V124.4z"/>
		</defs>
		<use xlink:href="#SVGID_51_"  style="overflow:visible;fill:#855814;"/>
		<clipPath id="SVGID_52_">
			<use xlink:href="#SVGID_51_"  style="overflow:visible;"/>
		</clipPath>
		<rect x="113.8" y="85.5" class="st25" width="540.6" height="97.3"/>
	</g>
	<g>
		<defs>
			<path id="SVGID_53_" d="M433.5,124.9c0-1.4,0.2-2.8,0.6-4c0.4-1.2,1.1-2.4,2.1-3.4c1-1,2.2-1.9,3.6-2.4c1.4-0.6,3-0.9,4.7-0.9
				c3.2,0,5.8,0.9,7.7,2.6c1.9,1.8,2.9,4.2,2.9,7.2c0,2.1-0.5,4.1-1.4,5.8c-0.9,1.7-2.3,3-4,4c-1.8,1-3.7,1.4-5.9,1.4
				c-1.5,0-3-0.3-4.3-0.8c-1.3-0.5-2.4-1.3-3.3-2.3c-0.9-1-1.6-2.2-2-3.6C433.7,127.3,433.5,126,433.5,124.9z M436.5,124
				c0,1.2,0.2,2.4,0.6,3.7s0.9,2.5,1.7,3.4c0.7,1,1.6,1.7,2.6,2.1c1,0.5,2.1,0.7,3.3,0.7c1.5,0,2.8-0.3,3.9-1c1.1-0.7,2-1.7,2.6-3.1
				c0.6-1.4,0.9-3,0.9-4.8c0-1.9-0.3-3.7-1-5.2c-0.7-1.5-1.7-2.7-2.9-3.4c-1.3-0.7-2.7-1.1-4.2-1.1c-2.3,0-4.1,0.7-5.5,2.2
				C437.2,119,436.5,121.2,436.5,124z"/>
		</defs>
		<use xlink:href="#SVGID_53_"  style="overflow:visible;fill:#855814;"/>
		<clipPath id="SVGID_54_">
			<use xlink:href="#SVGID_53_"  style="overflow:visible;"/>
		</clipPath>
		<rect x="112.6" y="74.8" class="st26" width="540.6" height="97.3"/>
	</g>
	<g>
		<defs>
			<path id="SVGID_55_" d="M482.6,114.7l0.1,0.1v0.7l-0.1,0.1c-1,0-1.7,0.1-1.9,0.2c-0.3,0.1-0.4,0.2-0.5,0.4
				c-0.1,0.2-0.2,0.5-0.2,1c0,0.5,0,2-0.1,4.3v6.6c0,1,0,2,0,3.2s0.1,1.9,0.2,2.1c0.1,0.2,0.3,0.3,0.5,0.4c0.2,0.1,0.9,0.1,2,0.2
				l0.1,0.1v0.7l-0.1,0.1c-1.5-0.1-2.9-0.1-4-0.1c-0.8,0-2.1,0-4,0.1l-0.1-0.1v-0.7l0.1-0.1c1,0,1.7-0.1,1.9-0.2
				c0.3-0.1,0.4-0.2,0.5-0.4c0.1-0.2,0.2-0.5,0.2-1c0-0.5,0-2,0.1-4.3v-10.5l-4.9,10.3c-1.2,2.6-2.3,5-3.2,7.3h-0.6
				c-0.5-1.2-1-2.2-1.3-2.9l-6.8-14.2v10c0,0.9,0,2,0,3.2c0,1.2,0.1,1.9,0.2,2.1c0.1,0.2,0.3,0.3,0.5,0.4c0.2,0.1,0.9,0.2,2,0.2
				l0.1,0.1v0.7l-0.1,0.1l-0.9,0c-0.9,0-1.7-0.1-2.4-0.1c-0.3,0-1.4,0-3.4,0.1l-0.1-0.1v-0.7l0.1-0.1c1,0,1.7-0.1,1.9-0.1
				c0.2-0.1,0.4-0.2,0.5-0.4c0.1-0.2,0.2-0.5,0.2-1c0-0.5,0-2,0.1-4.4v-6.5c0-0.9,0-1.9,0-3.2c0-1.2-0.1-2-0.2-2.2
				c-0.1-0.2-0.3-0.3-0.5-0.4c-0.2-0.1-0.9-0.2-2-0.2l-0.1-0.1v-0.7l0.1-0.1c0.7,0,1.5,0.1,2.7,0.1c1,0,2,0,2.7-0.1
				c0.8,1.8,1.6,3.5,2.3,5l5.4,11.1l4.9-10.2c1.3-2.7,2.2-4.7,2.7-5.9c0.9,0,1.8,0.1,2.7,0.1C480.6,114.7,481.5,114.7,482.6,114.7z"
				/>
		</defs>
		<use xlink:href="#SVGID_55_"  style="overflow:visible;fill:#855814;"/>
		<clipPath id="SVGID_56_">
			<use xlink:href="#SVGID_55_"  style="overflow:visible;"/>
		</clipPath>
		<rect x="109.4" y="61.9" class="st27" width="540.6" height="97.3"/>
	</g>
	<g>
		<defs>
			<path id="SVGID_57_" d="M492.5,134.8l-0.1,0.1c-0.1,0-0.7,0-1.9-0.1c-1.1,0-1.9-0.1-2.3-0.1c-0.2,0-1.5,0-4,0.1l-0.1-0.1V134
				l0.1-0.1c0.8,0,1.4-0.1,1.7-0.1c0.3-0.1,0.5-0.1,0.6-0.3c0.1-0.1,0.2-0.3,0.2-0.6c0-0.3,0.1-1,0.1-2.1c0-1.1,0-2.1,0-2.8v-6.6
				c0-1,0-2,0-3.1c0-1.1-0.1-1.8-0.1-2c-0.1-0.2-0.1-0.4-0.2-0.4c-0.1-0.1-0.3-0.2-0.6-0.2c-0.3-0.1-0.9-0.1-1.8-0.1l-0.1-0.1v-0.7
				l0.1-0.1l0.9,0l0.6,0l1,0l2,0l3,0c1.1,0,2.4,0,3.7,0l5.7,0l3.3,0c0.6,0,1.3,0,1.9,0l0.1,0.1v0.7l-0.1,0.1c-0.9,0-1.5,0.1-1.8,0.1
				c-0.3,0.1-0.5,0.1-0.6,0.2c-0.1,0.1-0.2,0.3-0.2,0.5c0,0.2-0.1,1-0.1,2.2c0,1.2,0,2.2,0,2.9v6.6c0,0.7,0,1.7,0,2.8
				c0,1.1,0,1.8,0.1,2.1c0,0.3,0.1,0.5,0.2,0.6c0.1,0.1,0.3,0.2,0.7,0.3c0.3,0.1,0.9,0.1,1.7,0.1l0.1,0.1v0.7l-0.1,0.1
				c-0.1,0-0.7,0-1.9-0.1c-1.1,0-1.9-0.1-2.3-0.1c-0.2,0-1.5,0-4,0.1l-0.1-0.1V134l0.1-0.1c1,0,1.6-0.1,1.8-0.1
				c0.3-0.1,0.5-0.1,0.5-0.2c0.1-0.1,0.2-0.3,0.2-0.5c0-0.2,0.1-1,0.1-2.2c0-1.2,0-2.2,0-2.9v-12l-0.2-0.2h-10.9l-0.2,0.2v12
				c0,0.7,0,1.7,0,2.8c0,1.1,0,1.8,0.1,2.1c0,0.3,0.1,0.5,0.2,0.6c0.1,0.1,0.3,0.2,0.7,0.3c0.3,0.1,0.9,0.1,1.7,0.1l0.1,0.1V134.8z"
				/>
		</defs>
		<use xlink:href="#SVGID_57_"  style="overflow:visible;fill:#855814;"/>
		<clipPath id="SVGID_58_">
			<use xlink:href="#SVGID_57_"  style="overflow:visible;"/>
		</clipPath>
		<rect x="113" y="76" class="st28" width="540.6" height="97.3"/>
	</g>
	<g>
		<defs>
			<path id="SVGID_59_" d="M507.8,135l-0.1-0.1v-0.7l0.1-0.1c0.7,0,1.1,0,1.3-0.1c0.2-0.1,0.4-0.2,0.5-0.4c0.2-0.2,0.5-0.8,0.9-1.8
				l1.5-3.2l3.9-8.8c0.7-1.7,1.5-3.4,2.2-5.2h0.9l6.1,14.3l0.8,1.9c0.2,0.5,0.5,1.1,0.8,1.8c0.3,0.6,0.5,1,0.6,1.1
				c0.1,0.1,0.3,0.2,0.4,0.3c0.2,0.1,0.6,0.1,1.2,0.1l0.1,0.1v0.7L529,135c-1-0.1-1.9-0.1-2.7-0.1c-1.6,0-3.2,0.1-4.7,0.1l-0.1-0.1
				v-0.7l0.1-0.1c1.1,0,1.7-0.1,2-0.1c0.3-0.1,0.4-0.2,0.4-0.5c0-0.2-0.1-0.5-0.2-0.8l-1.8-4.3h-8.3l-1.6,3.6
				c-0.3,0.7-0.4,1.1-0.4,1.4c0,0.2,0.1,0.4,0.4,0.5c0.3,0.1,0.9,0.2,1.9,0.2l0.1,0.1v0.7l-0.1,0.1c-1.2-0.1-2.3-0.1-3.2-0.1
				C509.9,134.9,508.8,134.9,507.8,135z M514.3,127h7.2l-3.6-8.6L514.3,127z"/>
		</defs>
		<use xlink:href="#SVGID_59_"  style="overflow:visible;fill:#855814;"/>
		<clipPath id="SVGID_60_">
			<use xlink:href="#SVGID_59_"  style="overflow:visible;"/>
		</clipPath>
		<rect x="111.3" y="68.4" class="st29" width="540.6" height="97.3"/>
	</g>
	<g>
		<defs>
			<path id="SVGID_61_" d="M530.7,114.6c2.4,0.1,3.8,0.1,4.1,0.1c0.3,0,1.7,0,4.1-0.1l0.1,0.1v0.7l-0.1,0.1c-0.7,0-1.2,0-1.5,0.1
				c-0.4,0-0.6,0.1-0.8,0.2c-0.2,0.1-0.3,0.3-0.3,0.7c-0.1,0.4-0.1,0.9-0.1,1.6l0,3.3v2c2.1,0.1,4.1,0.1,5.9,0.1
				c2.5,0,4.5,0,5.8-0.1v-2l0-2.8c0-1.1,0-1.8-0.1-2.1c0-0.3-0.1-0.5-0.2-0.6c-0.1-0.1-0.3-0.2-0.5-0.3c-0.3-0.1-0.9-0.1-1.9-0.2
				l-0.1-0.1v-0.7l0.1-0.1c2.4,0.1,3.8,0.1,4.1,0.1c0.3,0,1.7,0,4.1-0.1l0.1,0.1v0.7l-0.1,0.1c-0.7,0-1.2,0-1.5,0.1
				c-0.4,0-0.6,0.1-0.8,0.2c-0.2,0.1-0.3,0.3-0.3,0.7c0,0.4-0.1,0.9-0.1,1.6l0,3.3v6.6l0,2.8c0,1.1,0,1.8,0.1,2.1
				c0,0.3,0.1,0.5,0.2,0.6c0.1,0.1,0.3,0.2,0.5,0.3c0.3,0.1,0.9,0.1,1.9,0.2l0.1,0.1v0.7l-0.1,0.1c-2.4-0.1-3.8-0.1-4.1-0.1
				c-0.3,0-1.7,0-4.1,0.1l-0.1-0.1V134l0.1-0.1c0.9,0,1.5-0.1,1.8-0.1c0.3-0.1,0.5-0.1,0.6-0.2c0.1-0.1,0.2-0.3,0.2-0.6
				c0.1-0.3,0.1-1,0.1-2l0-3v-3.2c-2.8-0.1-4.8-0.1-5.9-0.1c-1.2,0-3.1,0-5.8,0.1v3.2l0,2.8c0,1.1,0,1.8,0.1,2.1
				c0,0.3,0.1,0.5,0.2,0.6c0.1,0.1,0.3,0.2,0.5,0.3c0.3,0.1,0.9,0.1,1.9,0.2l0.1,0.1v0.7l-0.1,0.1c-2.4-0.1-3.8-0.1-4.1-0.1
				c-0.3,0-1.7,0-4.1,0.1l-0.1-0.1V134l0.1-0.1c0.9,0,1.5-0.1,1.8-0.1c0.3-0.1,0.5-0.1,0.6-0.2c0.1-0.1,0.2-0.3,0.2-0.6
				c0.1-0.3,0.1-1,0.1-2l0-3v-6.6l0-2.8c0-1.1,0-1.8-0.1-2.1c0-0.3-0.1-0.5-0.2-0.6c-0.1-0.1-0.3-0.2-0.5-0.3
				c-0.3-0.1-0.9-0.1-1.9-0.2l-0.1-0.1v-0.7L530.7,114.6z"/>
		</defs>
		<use xlink:href="#SVGID_61_"  style="overflow:visible;fill:#855814;"/>
		<clipPath id="SVGID_62_">
			<use xlink:href="#SVGID_61_"  style="overflow:visible;"/>
		</clipPath>
		<rect x="109.4" y="66" class="st30" width="540.6" height="97.3"/>
	</g>
</g>
</svg>
