<?xml version="1.0" encoding="utf-8"?><svg xmlns="http://www.w3.org/2000/svg" xmlns:xlink="http://www.w3.org/1999/xlink"><symbol viewBox="0 0 37.8 56.98" id="address" xmlns="http://www.w3.org/2000/svg"><defs><style>.acls-1{fill:#b3955a}</style></defs><g id="aСлой_2" data-name="Слой 2"><g id="aСлой_1-2" data-name="Слой 1"><path class="acls-1" d="M37.8 19.4c-.1 1.3-.2 2.5-.4 3.8a38.49 38.49 0 01-3 10 94.66 94.66 0 01-11 18.7c-1.1 1.5-2.4 3-3.5 4.5-.6.7-1.3.8-1.9.1A98.71 98.71 0 014 34.9 41.36 41.36 0 01.5 24.1c-.2-1.3-.3-2.5-.4-3.8 0-.3-.1-.5-.1-.8v-.8c0-.3.1-.6.1-.9A27 27 0 01.5 15 18.51 18.51 0 016.8 4.5 16.8 16.8 0 0115.7.3c1-.2 2-.2 3-.3h.2c.3 0 .6.1.9.1a28.86 28.86 0 012.9.4 18.84 18.84 0 0110.7 6.4 17.71 17.71 0 014.1 9c.1.9.2 1.8.3 2.8zm-19 34.9l.3-.3a102.12 102.12 0 0012.4-19.5 41.14 41.14 0 004.1-13.3 16.83 16.83 0 00-2-10.3 16.69 16.69 0 00-17-8.6A16.11 16.11 0 005.8 8.4c-3.3 4-4.2 8.7-3.5 13.8a43.09 43.09 0 004 12.6 87.23 87.23 0 009.3 15.5c1 1.4 2.1 2.7 3.2 4z"/><path class="acls-1" d="M27 20.2a8.2 8.2 0 11-8.2-8.2 8.24 8.24 0 018.2 8.2zm-14.3-.1a6.21 6.21 0 006.1 6.2 6.1 6.1 0 006.1-6 6.19 6.19 0 00-6-6.2 6.06 6.06 0 00-6.2 6z"/></g></g></symbol><symbol viewBox="0 0 19 27.38" id="arrow-all-project" xmlns="http://www.w3.org/2000/svg"><g data-name="Слой 2"><path d="M10.4 24.38l.3-.3 6.8-6.8c.4-.4.8-.5 1.1-.3a.71.71 0 01.3 1l-.3.3-8.9 8.9-.2.2c-.1-.1-.2-.1-.2-.2l-8.9-8.9c-.4-.4-.5-.7-.3-1.1a.71.71 0 011-.3 1.76 1.76 0 01.5.4L8.3 24c.1.1.1.2.2.4.1 0 .1-.1.2-.1V1.08a1.88 1.88 0 01.2-.8.74.74 0 011.3.3 1.27 1.27 0 01.1.6v23.2c0-.1 0-.1.1 0z" data-name="Слой 1"/></g></symbol><symbol viewBox="0 0 35.6 19.5" id="arrow-down" xmlns="http://www.w3.org/2000/svg"><g data-name="Слой 2"><path d="M1.7 0c.1.1.1.2.2.3C7.1 5.5 12.3 10.7 17.5 16c.1.1.2.1.2.2.1-.1.2-.2.3-.2C23.2 10.8 28.4 5.6 33.6.3c.2-.1.2-.2.3-.3h.1l1.6 1.6v.1l-.3.3-17.1 17.1c-.1.1-.2.3-.3.4h-.2c-.1-.1-.2-.3-.3-.4C11.7 13.5 6 7.7.3 2L0 1.7v-.1C.5 1.1 1.1.6 1.7 0z" data-name="Слой 1"/></g></symbol><symbol viewBox="0 0 2.4 4.4" id="arrow-slider" xmlns="http://www.w3.org/2000/svg"><defs><style>.dcls-1{fill:#b79b6c}</style></defs><g id="dСлой_2" data-name="Слой 2"><path class="dcls-1" d="M2.2 4.4c0-.1.1-.1.2-.2-.7-.7-1.4-1.3-2-2l2-2-.2-.2A22.84 22.84 0 000 2.2c.7.7 1.4 1.5 2.2 2.2z" id="dСлой_1-2" data-name="Слой 1"/></g></symbol><symbol viewBox="0 0 4.3 5" id="base" xmlns="http://www.w3.org/2000/svg"><defs><style>.ecls-1{fill:#fff}</style></defs><g id="eСлой_2" data-name="Слой 2"><g id="eСлой_1-2" data-name="Слой 1"><path class="ecls-1" d="M4.3 2.4v1.9a.37.37 0 01-.1.3.51.51 0 01-.5.4H.6a.68.68 0 01-.6-.4v-4C0 .4 0 .3.1.2A.52.52 0 01.5 0h3.2a.55.55 0 01.5.3c0 .1.1.2.1.3zm-4 .8h3.8V1.8H.3zm3.8.2H.3v.9a.37.37 0 00.4.4h3.1a.37.37 0 00.4-.4 2.22 2.22 0 01-.1-.9zm0-1.9v-1c0-.2-.2-.3-.4-.3H.6a.27.27 0 00-.3.3v1z"/><path class="ecls-1" d="M2.2 2.8h-.4a.27.27 0 01-.3-.3c0-.1 0-.1.1-.1s.1 0 .1.1 0 .1.1.1h.7c.1 0 .1 0 .1-.1a.1.1 0 11.2 0 .27.27 0 01-.3.3zM2.1 4.4h-.4a.27.27 0 01-.3-.3c0-.1 0-.1.1-.1s.1 0 .1.1.1.1.2.1h.6c.1 0 .1 0 .1-.1a.1.1 0 01.2 0 .27.27 0 01-.3.3h-.3zM2.2 1.1h-.4a.27.27 0 01-.3-.3c0-.1 0-.1.1-.1s.1 0 .1.1 0 .1.1.1h.7c.1 0 .1 0 .1-.1a.1.1 0 11.2 0 .27.27 0 01-.3.3h-.3z"/></g></g></symbol><symbol viewBox="0 0 38 52.3" id="calc" xmlns="http://www.w3.org/2000/svg"><defs><style>.fcls-1{fill:#b19461}</style></defs><g id="fСлой_2" data-name="Слой 2"><g id="fСлой_1-2" data-name="Слой 1"><path class="fcls-1" d="M0 48.4V3.9c0-.1 0-.2.1-.2A4.15 4.15 0 013.3.2a1.42 1.42 0 01.6-.2h30.2c.1 0 .1 0 .2.1a4.07 4.07 0 013.5 3c.1.3.1.5.2.8v44.5c0 .1 0 .2-.1.2a4.32 4.32 0 01-2.7 3.4l-1.2.3H3.7a4.32 4.32 0 01-3.6-3 2.22 2.22 0 00-.1-.9zm35.6-22.3V4.3a1.74 1.74 0 00-1.9-1.9H4.2a1.78 1.78 0 00-1.9 1.9V48a1.78 1.78 0 001.9 1.9h29.5a1.7 1.7 0 00.7-.1 1.8 1.8 0 001.1-1.8c.1-7.3.1-14.6.1-21.9z"/><path class="fcls-1" d="M19 16.6H6.7a1.27 1.27 0 01-1.4-1.4V6.7a1.43 1.43 0 011.4-1.4h24.5a1.27 1.27 0 011.4 1.4v8.5a1.27 1.27 0 01-1.4 1.4zm11.3-8.8H7.8v6.5h22.5zM25.5 38.3v-7.2a1.27 1.27 0 011.4-1.4h4.3a1.27 1.27 0 011.4 1.4v14.5a1.24 1.24 0 01-1.3 1.4h-4.5a1.21 1.21 0 01-1.3-1.3zm2.4-6.2v12.4h2.3V32.1zM8.9 26.7H6.6a1.21 1.21 0 01-1.3-1.3v-4.5a1.21 1.21 0 011.3-1.3h4.5a1.21 1.21 0 011.3 1.3v4.5a1.21 1.21 0 01-1.3 1.3zm1.2-4.7H7.8v2.3h2.3zM29.1 26.7h-2.3a1.21 1.21 0 01-1.3-1.3v-4.5a1.21 1.21 0 011.3-1.3h4.5a1.21 1.21 0 011.3 1.3v4.5a1.21 1.21 0 01-1.3 1.3zm-1.2-2.4h2.3V22h-2.3zM12.5 33.3v2.3a1.26 1.26 0 01-1.3 1.3H6.6a1.26 1.26 0 01-1.3-1.3V31a1.21 1.21 0 011.3-1.3h4.5a1.21 1.21 0 011.3 1.3 17.7 17.7 0 01.1 2.3zm-4.8 1.1H10v-2.3H7.7zM22.6 23.2v2.3a1.21 1.21 0 01-1.3 1.3h-4.5a1.21 1.21 0 01-1.3-1.3v-4.6a1.26 1.26 0 011.3-1.3h4.5a1.21 1.21 0 011.3 1.3zm-2.4 1.1v-2.2c0-.2-.1-.2-.2-.2h-2.1v2.4zM19 36.8h-2.3a1.21 1.21 0 01-1.3-1.3V31a1.21 1.21 0 011.3-1.3h4.5a1.21 1.21 0 011.3 1.3v4.6a1.21 1.21 0 01-1.3 1.3 16.2 16.2 0 00-2.2-.1zm-1.2-2.4h2.4v-2.2a.22.22 0 00-.2-.2h-2a.22.22 0 00-.2.2zM8.9 46.9H6.6a1.21 1.21 0 01-1.3-1.3v-4.5a1.21 1.21 0 011.3-1.3h4.5a1.21 1.21 0 011.3 1.3v4.5a1.21 1.21 0 01-1.3 1.3zm1.2-2.4v-2.3H7.8v2.3zM19 46.9h-2.3a1.21 1.21 0 01-1.3-1.3v-4.5a1.21 1.21 0 011.3-1.3h4.5a1.21 1.21 0 011.3 1.3v4.6a1.21 1.21 0 01-1.3 1.3 16.2 16.2 0 00-2.2-.1zm1.2-2.4v-2.3h-2.3v2.3z"/></g></g></symbol><symbol viewBox="0 0 34 28.47" id="chat" xmlns="http://www.w3.org/2000/svg"><defs><style>.gcls-1{fill:#b79b6c}</style></defs><g id="gСлой_2" data-name="Слой 2"><g id="gСлой_1-2" data-name="Слой 1"><path class="gcls-1" d="M0 2.1c0-.1.1-.3.1-.4A2.4 2.4 0 012 .1a2.77 2.77 0 01.9-.1H22a2.77 2.77 0 012.4 1.1 2.39 2.39 0 01.5 1.4v1.2a.7.7 0 11-1.4 0V2.6a1.4 1.4 0 00-1.2-1.4H3a1.92 1.92 0 00-1.2.4 1.23 1.23 0 00-.4.8v16a1.29 1.29 0 001.3 1.4h1.6a.67.67 0 01.7.5v2.3a.1.1 0 00.1-.1A34.67 34.67 0 008 20a1.14 1.14 0 01.8-.3.63.63 0 01.6.5.45.45 0 01-.2.6c-1.4 1.2-2.9 2.4-4.3 3.6-.2.4-.4.4-.7.3a.67.67 0 01-.5-.7v-3h-.9a2.81 2.81 0 01-1.9-.7 2.16 2.16 0 01-.9-1.4V2.1z"/><path class="gcls-1" d="M30.2 24.8v2.9a.67.67 0 01-.4.7 1 1 0 01-.9-.1c-.4-.4-.9-.7-1.3-1.1-.9-.8-1.8-1.5-2.7-2.3a.37.37 0 00-.3-.1H14.1a3 3 0 01-2.2-.8 2.5 2.5 0 01-.8-1.8V8.1a2.34 2.34 0 011.7-2.3 3.18 3.18 0 011.4-.2h16.5a4.4 4.4 0 011.6.2A2.39 2.39 0 0134 7.6v14.7a2.31 2.31 0 01-1.1 2 2.73 2.73 0 01-1.8.5zm-1.5 1.6v-2.3a.67.67 0 01.7-.5h1.5a1.31 1.31 0 001.4-1.4v-14a1.1 1.1 0 00-.6-1c-.2-.4-.5-.4-.9-.4h-17a1.26 1.26 0 00-1.3 1.3v14.1a1.08 1.08 0 00.7 1.1 1.49 1.49 0 00.9.2h11.1a.76.76 0 01.4.1c.8.7 1.5 1.3 2.3 1.9a3.45 3.45 0 00.8.9zM8.7 9.7a1.16 1.16 0 011.2 1.2 1.22 1.22 0 01-1.2 1.2 1.39 1.39 0 01-1.2-1.3 1.08 1.08 0 011.2-1.1z"/><path class="gcls-1" d="M17 16.6a1.1 1.1 0 111.1-1.1 1.11 1.11 0 01-1.1 1.1zM23.4 15.5a1.1 1.1 0 11-1.1-1.1 1 1 0 011.1 1.1zM27.5 16.6a1.1 1.1 0 111.1-1.1 1.11 1.11 0 01-1.1 1.1z"/></g></g></symbol><symbol viewBox="0 0 5.5 5.5" id="distance" xmlns="http://www.w3.org/2000/svg"><defs><style>.hcls-1{fill:#fff}</style></defs><g id="hСлой_2" data-name="Слой 2"><g id="hСлой_1-2" data-name="Слой 1"><path class="hcls-1" d="M5.5 3.3v.2c-.1.2-.2.5-.3.7l-.6 1.2c-.1.1-.2.1-.2 0s-.1-.2-.2-.3A11.73 11.73 0 013.7 4a1.42 1.42 0 01-.2-.6.78.78 0 01.2-.8.86.86 0 01.6-.3h.3a.85.85 0 01.6.3c.2.1.2.3.3.5v.2zm-1 1.9a5.9 5.9 0 00.4-.8c.1-.3.3-.5.3-.8 0-.1.1-.3 0-.5s-.1-.3-.2-.5-.4-.2-.7-.2a.76.76 0 00-.4.2.83.83 0 00-.2.8c0 .1.1.3.1.4.2.4.4.9.7 1.4zM.9 0h.2a1.15 1.15 0 01.6.9.37.37 0 01-.1.3 5.74 5.74 0 01-.4.7 1.38 1.38 0 00-.3.4.1.1 0 01-.1.1H.7l-.1-.1a4.67 4.67 0 00-.5-1c0-.1-.1-.2-.1-.3A.9.9 0 01.1.5C.2.2.4.1.7 0h.2zM.8 2.1c.1-.1.2-.2.2-.3l.3-.6c.1-.1.2-.2.2-.3A.67.67 0 00.7.2C.5.2.4.3.3.5a.9.9 0 00-.1.5c0 .1.1.2.1.3a5.58 5.58 0 01.5.8zM2.8 4.4c.1.2.2.3.2.4v.1h-.1c-.2-.2-.2-.3-.2-.4s0-.1.1-.1zM3.5 5.3a.1.1 0 01-.1.1c-.1 0-.2-.1-.3-.2s-.1-.1 0-.2h.2c0 .1 0 .1.2.3-.1-.1 0-.1 0 0zM2.7 3.3c0 .1 0 .1-.1.1h-.1a.37.37 0 00-.1-.3V3a.1.1 0 01.1-.1h.1v.3zM2.8 4.1c-.1.1-.2.1-.2 0v-.4h.1a.1.1 0 01.1.1v.1c-.1 0 0 .1 0 .2zM1.8 2.3c-.1 0-.2-.1-.3-.1a.1.1 0 01-.1-.1V2s0-.1.1 0a.37.37 0 01.3.1c.1.1.1.1 0 .2zM2.2 2.3a1.38 1.38 0 01.3.4c0 .1 0 .1-.1.1h-.1c-.1-.2-.1-.3-.2-.3s0-.1.1-.2zM4 5.5h-.3a.1.1 0 01-.1-.1v-.1H4a.1.1 0 010 .2z"/><path class="hcls-1" d="M4 3.2a.47.47 0 01.5-.5.54.54 0 01.5.5c-.1.3-.3.5-.5.5a.47.47 0 01-.5-.5zm.5.3a.32.32 0 00.3-.3.3.3 0 10-.6 0 .27.27 0 00.3.3zM.8 1.1A.27.27 0 01.5.8.32.32 0 01.8.5a.32.32 0 01.3.3.27.27 0 01-.3.3zM.9.8a.14.14 0 00-.2 0c0 .1.1.1.2 0z"/></g></g></symbol><symbol viewBox="0 0 30 36.64" id="ensure-exact-terms" xmlns="http://www.w3.org/2000/svg"><defs><style>.icls-1{fill:#b79b6c}</style></defs><g id="iСлой_2" data-name="Слой 2"><g id="iСлой_1-2" data-name="Слой 1"><path class="icls-1" d="M14.6 0h.6a3.5 3.5 0 011.7.9c.8.6 1.5 1.2 2.3 1.8A6.78 6.78 0 0021.9 4a18.57 18.57 0 003.4.5h2.3a2.26 2.26 0 012.3 1.7c0 .1.1.2.1.4v7.5a32.7 32.7 0 01-.4 4.4 28.86 28.86 0 01-1.4 5.8 19.89 19.89 0 01-4.9 7.8 17.14 17.14 0 01-7.2 4.3 3.21 3.21 0 01-1.7.2 9.77 9.77 0 01-3-1.1 17.4 17.4 0 01-7.6-7.1 25.19 25.19 0 01-3.2-8.8 41.65 41.65 0 01-.6-7.1V6.8a2.26 2.26 0 012.5-2.3 19.72 19.72 0 004.2-.2 9.34 9.34 0 004.8-2c.7-.6 1.4-1.2 2-1.8a3.13 3.13 0 011-.5c-.1.1 0 0 .1 0zm13 6.8h-.1a18.6 18.6 0 01-4.7-.3 14.71 14.71 0 01-3-.8 19 19 0 01-4.4-3c-.2-.1-.3-.3-.5-.4l-.1.1a17.55 17.55 0 01-3 2.4 10.36 10.36 0 01-3.2 1.5 21.68 21.68 0 01-6.2.5h-.2v5.5a32.42 32.42 0 00.5 6.2 24.37 24.37 0 001.4 5.3 18 18 0 005 7.4A14.17 14.17 0 0014 34a2 2 0 001.5.1 15 15 0 006.1-3.8 19.07 19.07 0 004.5-7.5 28.94 28.94 0 001.5-9.7V6.8z"/><path class="icls-1" d="M12.7 21.3c0-.1.1-.1.1-.2l8.7-8.7a1.38 1.38 0 112.1 1.8c0 .1-.1.1-.2.2l-9.8 9.8a1.53 1.53 0 01-1.8.3c-.1-.1-.2-.1-.3-.2l-5.4-5.4a1.32 1.32 0 01.6-2.3 1.28 1.28 0 011.4.4l1.6 1.6c.9.9 1.8 1.9 2.8 2.8.1-.2.2-.1.2-.1z"/></g></g></symbol><symbol viewBox="0 0 32.09 34.6" id="ensure-quality" xmlns="http://www.w3.org/2000/svg"><defs><style>.jcls-1{fill:#b79b6c}</style></defs><g id="jСлой_2" data-name="Слой 2"><path class="jcls-1" d="M0 31.25v-1.7c1 .1 1.9.1 2.9.2a17.52 17.52 0 015.1 1.4 23.34 23.34 0 007.3 1.6 52.08 52.08 0 007.9 0 34.31 34.31 0 003.4-.6 1.42 1.42 0 00.6-.2c1.6-.6 2-1.7 1.2-3.2-.4-.7-.3-1.1.5-1.5a2.18 2.18 0 00.8-.5 1.63 1.63 0 00-.4-2.9c-.8-.4-.8-1.1-.1-1.6a1.76 1.76 0 00.5-.4 1.89 1.89 0 00-.5-3.2c-.6-.3-.8-.5-.6-1.2.1-.4.1-.8.2-1.3a1.66 1.66 0 00-1.8-2.1 25.61 25.61 0 00-3.9.3l-4.2.6a3.3 3.3 0 01-1.4 0 2.48 2.48 0 01-2-2.7 5.83 5.83 0 01.6-2.6c.5-1 1-2.1 1.4-3.1a5.33 5.33 0 00.4-2.8 3.36 3.36 0 00-1.3-2c-.7-.4-1.2-.2-1.3.6a13.62 13.62 0 01-1.2 4.5 11.91 11.91 0 01-3.4 4c-.7.5-1.3 1.1-2 1.6a8.76 8.76 0 00-1.9 2.4c-.2.4-.4.9-.6 1.3a5.57 5.57 0 01-4.7 3.2c-.4 0-.7.1-1.1.1H.2v-1.4c0-.1.2-.2.3-.2.6-.1 1.1-.1 1.7-.2a3.2 3.2 0 002.3-1.6l.6-1.2a12.37 12.37 0 013.1-4.1c.8-.6 1.5-1.3 2.3-2a9.41 9.41 0 003.2-6.2c.1-.5.2-.9.3-1.4a1.62 1.62 0 012-1.1 4.28 4.28 0 013.7 4.1 8.63 8.63 0 01-.8 3.6c-.4.9-.8 1.8-1.2 2.6a5.78 5.78 0 00-.5 1.4c-.3 1.1.3 1.7 1.4 1.6l2.2-.3c1.7-.2 3.4-.5 5.1-.6a4.84 4.84 0 012.4.3 3.32 3.32 0 012.1 3.7 1.28 1.28 0 00.5 1.4 3.33 3.33 0 01.4 4.7c-.1.1-.2.3-.3.4a3.25 3.25 0 011 1.8 3.3 3.3 0 01-1.5 3.5c-.3.2-.3.4-.3.7a6.73 6.73 0 01.1 2 2.92 2.92 0 01-1.7 2.2 11.24 11.24 0 01-3.1 1 39.45 39.45 0 01-8.4.4 30.84 30.84 0 01-6.8-.8 17.26 17.26 0 01-3.2-1.1 18.47 18.47 0 00-6.6-1.3.9.9 0 00-.5-.1z" id="jСлой_1-2" data-name="Слой 1"/></g></symbol><symbol viewBox="0 0 36.14 19.61" id="eye" xmlns="http://www.w3.org/2000/svg"><g data-name="Слой 2"><g data-name="Слой 1"><path d="M18 0a18.45 18.45 0 017.3 1.6 31.2 31.2 0 0110.3 7.3l.2.2a.85.85 0 010 1.3c-.6.7-1.3 1.3-2 2a30.46 30.46 0 01-7 4.9 19.51 19.51 0 01-9.4 2.3 18.8 18.8 0 01-6.6-1.6A31.49 31.49 0 01.54 10.6l-.2-.2c-.4-.5-.5-.9 0-1.3a26.21 26.21 0 013-2.8 27 27 0 017.5-4.7A18 18 0 0118 0zM9.84 3.7a30.63 30.63 0 00-8.1 6.2c.7.7 1.4 1.3 2 1.9a27.5 27.5 0 008.8 5.4 16.38 16.38 0 0012.3-.5 31.48 31.48 0 008.1-5.3l1.5-1.5c-1.9-2.1-6.6-5.7-8.1-6.1a9.14 9.14 0 01-2.8 11 9.18 9.18 0 01-10.5.3 9.14 9.14 0 01-3.2-11.4zm8.3-2.2a14 14 0 00-5.4 1 1 1 0 00-.5.4 7.14 7.14 0 00-1.6 5.8 7.45 7.45 0 008.9 6.3A7.59 7.59 0 0024 3a1.47 1.47 0 00-.6-.5 13.86 13.86 0 00-5.26-1z"/><path d="M18.24 11.3a3.69 3.69 0 01-3.9-3.5 3.76 3.76 0 017.5-.5 3.8 3.8 0 01-3.6 4zM18 9.8a2.18 2.18 0 002.2-2.3 2.13 2.13 0 00-2.3-2.2 2.24 2.24 0 00-2.2 2.3A2.38 2.38 0 0018 9.8z"/></g></g></symbol><symbol viewBox="0 0 155.98 169.3" id="gift" xmlns="http://www.w3.org/2000/svg"><defs><style>.lcls-1{fill:#e6d081}</style></defs><g id="lСлой_2" data-name="Слой 2"><path class="lcls-1" d="M106.5.1h3.3c.2.1.5.1.7.2a12.43 12.43 0 0110.1 7.8 15.78 15.78 0 01.7 8.6 23.71 23.71 0 01-6.6 12.1l-9.8 9.8-.8.8h31.7c10.1 0 18.2 6.7 19.8 16.7a45.19 45.19 0 01.3 9 19.21 19.21 0 01-10.1 17 1.49 1.49 0 00-.9 1.5v70.5a21.86 21.86 0 01-.3 3.6 14.49 14.49 0 01-14.4 11.6H26a14.42 14.42 0 01-8.1-2.3 14.15 14.15 0 01-6.8-12.8V83.4a1.21 1.21 0 00-.8-1.3A19.65 19.65 0 01.4 68.7a21.66 21.66 0 01-.4-2.5v-8.6c.2-1.1.3-2.1.6-3.2a19.86 19.86 0 0119.5-15.1h31.7c0-.1.1-.2.1-.3-.2-.2-.5-.3-.7-.5-3.5-3.5-7-6.9-10.4-10.5-4.1-4.4-6.7-9.5-6.3-15.6C34.8 7 37.4 3 42.6 1c1.2-.5 2.4-.6 3.7-1h3.3c.4.1.8.2 1.3.3A22.7 22.7 0 0163.2 7c5 5.2 10.5 9.9 15 15.6 1-1.2 2-2.6 3.1-3.7 4.1-4.2 8.2-8.3 12.4-12.4a22.26 22.26 0 0110.8-6 11.8 11.8 0 012-.4zm-33 160.4V84.7H20v69.9a5.86 5.86 0 006.2 5.9h47.3zm62.6-75.7H82.6v75.8h47.2c3.9 0 6.3-2.4 6.3-6.3V84.8zm-53.6-9.1h54a10.78 10.78 0 0010.1-7.8 8.51 8.51 0 00.4-2.2 78.16 78.16 0 00-.1-8.4c-.7-5.2-5.3-9.1-11.1-9.1-17.4.1-34.9 0-52.3 0h-.9c-.1 9.3-.1 18.4-.1 27.5zm-9-27.4H19.9A10.6 10.6 0 009.1 59.2v5.4a10.58 10.58 0 0011 11.1h53.4zm-1-14.7a12.74 12.74 0 00-3.7-8.2c-4.2-4.3-8.4-8.5-12.7-12.7A12.46 12.46 0 0048.2 9c-2.4-.2-4.3.9-4.7 2.8a7.67 7.67 0 00-.1 2.6 13.72 13.72 0 004 7.7c4 4.1 8.1 8.1 12.2 12.1a13 13 0 006.9 3.7c3.7.9 6-.8 6-4.3zm16.2 4.5a12.17 12.17 0 007.6-3.7c4.3-4.2 8.6-8.5 12.7-12.8a12.66 12.66 0 003.6-7.4c.5-3.5-1.6-5.6-5.1-5.3a12.21 12.21 0 00-7.6 3.7c-4.3 4.2-8.5 8.4-12.7 12.7a13.12 13.12 0 00-3.6 7c-.6 3.7 1.2 6 5.1 5.8z" id="lСлой_1-2" data-name="Слой 1"/></g></symbol><symbol viewBox="0 0 34.38 35.07" id="loupe" xmlns="http://www.w3.org/2000/svg"><defs><style>.mcls-1{fill:#e6d081}</style></defs><g id="mСлой_2" data-name="Слой 2"><g id="mСлой_1-2" data-name="Слой 1"><path class="mcls-1" d="M21.58 24.57a13.6 13.6 0 01-18.5-2.4A13.41 13.41 0 014.08 4a13.64 13.64 0 0120 18.5l10.3 10.3-2.3 2.3c-3.6-3.53-7-7.03-10.5-10.53zm4-11a12 12 0 10-12 12 12 12 0 0012-12z"/><path class="mcls-1" d="M14.38 14.37V20h-1.6v-5.6h-5.6v-1.6h5.6V7.17h1.6v5.6H20v1.6z"/></g></g></symbol><symbol viewBox="0 0 38.2 38" id="mortgage" xmlns="http://www.w3.org/2000/svg"><defs><style>.ncls-1{fill:#12313f}</style></defs><g id="nСлой_2" data-name="Слой 2"><g id="nСлой_1-2" data-name="Слой 1"><path class="ncls-1" d="M.1 19.1v-.4a1.85 1.85 0 01.7-1.2c1.9-1.9 3.8-3.8 5.8-5.7.2-.2.2-.3.2-.6V3.5a1.86 1.86 0 011.9-1.6h1.9A1.85 1.85 0 0112.3 3a1.49 1.49 0 01.2.9v2l.2-.2L17.8.6a1.93 1.93 0 01.9-.5.6.6 0 00.4-.1h.1a.37.37 0 01.3.1 3.13 3.13 0 011 .5c5.7 5.6 11.4 11.3 17.1 17l.1.1a1.61 1.61 0 01.5 1.1v.3a1.91 1.91 0 01-.7 1.4 2 2 0 01-1.3.4h-1.8V36h2.8a.82.82 0 01.9.8v.3a.87.87 0 01-.6.8c-.1 0-.1 0-.2.1H.9a1 1 0 01-.8-.7c0-.1 0-.1-.1-.1V37a.1.1 0 01.1-.1.9.9 0 011-.7h2.8V21H1.8a1.9 1.9 0 01-1.7-1.5c.1-.2 0-.3 0-.4zM5.8 36c.1 0 .1.1 0 0h26.6V19h3.5C30.5 13.3 24.8 7.6 19.1 2l-17 17h3.7zM8.7 9.6l1.8-1.8c.1-.1.1-.1.1-.2V3.8H8.7z"/><path class="ncls-1" d="M26.1 16.4l1.3 1.3-15.2 15.2-1.3-1.3zM18.2 19.9a3.8 3.8 0 11-7.6-.1 3.74 3.74 0 013.9-3.7 3.78 3.78 0 013.7 3.8zm-5.7 0a1.9 1.9 0 101.9-1.9 2 2 0 00-1.9 1.9zM23.9 33.2a3.8 3.8 0 01-3.8-3.8 3.8 3.8 0 017.6 0 3.8 3.8 0 01-3.8 3.8zm0-1.9a1.9 1.9 0 10-1.9-1.9 2 2 0 001.9 1.9z"/></g></g></symbol><symbol viewBox="0 0 38 38.01" id="own-production" xmlns="http://www.w3.org/2000/svg"><defs><style>.ocls-1{fill:#b19461}</style></defs><g id="oСлой_2" data-name="Слой 2"><path class="ocls-1" d="M38 16.81v19.8A2 2 0 0135.9 38h-34a2.38 2.38 0 01-1.2-.3 2.55 2.55 0 01-.7-1V6.21A2.94 2.94 0 011 5L6 .61a1.63 1.63 0 012.4 0 10.1 10.1 0 011.6 1.3c1 .8 2 1.7 2.9 2.5.1-.1.2-.1.2-.2C14.6 3 16 1.81 17.5.61a1.75 1.75 0 012.5 0c1.7 1.5 3.4 3 5.2 4.5a2 2 0 01.8 1.7v8.6h4.1V1.31A1.49 1.49 0 0131.5 0a1.63 1.63 0 011.8 1.8v13.6h2.9a1.8 1.8 0 011.6.9c.1.21.1.31.2.51zm-26.1 18v-17.3a1.84 1.84 0 012-2h8.7v-8a.76.76 0 00-.2-.4c-.8-.7-1.6-1.4-2.4-2-.5-.4-1-.9-1.5-1.3-.1 0-.3.2-.5.4-1.3 1.1-2.6 2.3-3.9 3.4a1.46 1.46 0 01-2.3-.1c-1-.8-1.9-1.7-2.9-2.5-.6-.4-1.1-.9-1.6-1.3-1.3 1.1-2.6 2.1-3.8 3.2a.71.71 0 00-.3.6v27.3zm7.7 0V27c0-1.2.6-1.8 1.9-1.8h6.9a2 2 0 01.7.1 1.56 1.56 0 011.2 1.7v7.8h4.4V18.71H15.1v16.1zm7.5 0v-6.4h-4.2v6.4z" id="oСлой_1-2" data-name="Слой 1"/></g></symbol><symbol viewBox="0 0 38 64" id="phone" xmlns="http://www.w3.org/2000/svg"><defs><style>.pcls-1{fill:#b3955a}.pcls-2{fill:none;stroke:#b3955a;stroke-miterlimit:10;stroke-width:2px}.pcls-3{fill:#b3965a}</style></defs><g id="pСлой_2" data-name="Слой 2"><g id="pСлой_1-2" data-name="Слой 1"><path class="pcls-1" d="M35.9 2l.1 59.9a.1.1 0 01-.1.1H2.1c-.1 0-.1 0-.1-.1V2.1C2 2 2 2 2.1 2h33.8m0-2H2.1A2.05 2.05 0 000 2.1v59.8A2.05 2.05 0 002.1 64h33.8a2.11 2.11 0 002.1-2.1V2.1A2.05 2.05 0 0035.9 0z"/><path class="pcls-1" d="M32 12v40.1H6V12h26m2-2H4v44.1h30V10z"/><path class="pcls-2" d="M14 7h10"/><circle class="pcls-3" cx="19" cy="57.9" r="1.9"/></g></g></symbol><symbol viewBox="0 0 156.14 167.66" id="phone-header" xmlns="http://www.w3.org/2000/svg"><defs><style>.qcls-1{fill:#fff}</style></defs><g id="qСлой_2" data-name="Слой 2"><path class="qcls-1" d="M0 52.26c.1-17.9 6.2-32.5 19.9-43.4C22.2 7 24.4 5 26.7 3.06c5.4-4.3 11.2-4.1 16.1.8a66.52 66.52 0 017.2 8.7c4.1 6.1 8.4 12.2 10.9 19.3s1.6 13.7-4.3 18.9a82.44 82.44 0 01-9.2 7.6c-7 4.8-8 10.8-5.4 18.5 2.4 6.9 6.6 12.9 11.1 18.6a133.72 133.72 0 0019.7 20.8c4.1 3.4 8.5 6.4 13.8 7.7a12.45 12.45 0 0012-3.4c3.2-3.1 6.4-6.2 9.7-9 6.1-5.2 12.8-5.9 19.8-2a52 52 0 018.8 5.9c4.7 3.9 9.2 8.1 13.7 12.3a20.28 20.28 0 013.7 5c2.8 4.9 2.5 9.6-1.5 13.5-5.4 5.3-10.8 10.7-17.5 14.5a51.2 51.2 0 01-26.5 6.9c-13.5-.1-25.6-4.6-36.9-11.5-12.8-7.7-23.7-17.8-33.7-28.8s-19.3-22.8-26.5-36c-5.1-9.8-9.2-20-10.9-31-.4-2.9-.6-5.8-.8-8.1z" id="qСлой_1-2" data-name="Слой 1"/></g></symbol><symbol viewBox="0 0 4.27 3.87" id="pluses" xmlns="http://www.w3.org/2000/svg"><defs><style>.rcls-1{fill:#fff}</style></defs><g id="rСлой_2" data-name="Слой 2"><path class="rcls-1" d="M1.78 3.6c.2-.3.3-.5.5-.8L4.07.1l.1-.1a.1.1 0 01.1.1v.1L1.88 3.8c0 .1-.1.1-.2 0-.5-.5-1.11-1-1.61-1.5-.07-.1-.07-.1 0-.2h.2c.41.3.71.7 1.11 1a1 1 0 00.4.5z" id="rСлой_1-2" data-name="Слой 1"/></g></symbol><symbol viewBox="0 0 4.17 5.24" id="price" xmlns="http://www.w3.org/2000/svg"><defs><style>.scls-1{fill:#fff}</style></defs><g id="sСлой_2" data-name="Слой 2"><g id="sСлой_1-2" data-name="Слой 1"><path class="scls-1" d="M2.4 5.24c-.1 0-.1-.1-.2-.1A15.38 15.38 0 001 3.84l-.9-.9v-1.7a.1.1 0 01.1-.1h1a.1.1 0 01.1.1v.1h-1v1.5l1.9 1.9.2.2h.1c.1-.1.2-.1.3-.2l1.1-1.1.1-.1v-.1l-.2-.2-1.3-1.3a1.76 1.76 0 01-.4-.5v-.1h.1c.1.1.2.1.2.2L4 3.14l.1.1a.19.19 0 010 .3 4.35 4.35 0 01-.6.7 3 3 0 01-.8.8.77.77 0 01-.3.2z"/><path class="scls-1" d="M1.2 1.74c.1 0 .1-.1.2-.1.1-.2.2-.3.2-.5v-.2a1.42 1.42 0 00-.2-.6.88.88 0 00-.7-.1c-.3 0-.4.2-.5.4v.3S.1 1 .1.94a.1.1 0 01-.1-.1.37.37 0 01.1-.3A.75.75 0 01.8 0a.88.88 0 01.7.1 1.49 1.49 0 01.3.7 1.28 1.28 0 01-.4 1h-.1l-.1.1c0 .1-.1.2-.2.3H.8a.43.43 0 01-.4-.4c0-.2.1-.3.3-.4a.55.55 0 01.5.3zm-.2 0c0-.1-.1-.1-.2-.1s-.1.1-.1.2A.22.22 0 00.9 2c.1 0 .1 0 .2-.1H1c-.2 0-.2 0-.2-.1a.1.1 0 01.1-.1zM1.2 3.24c.1-.1.1-.1.1-.2a5.5 5.5 0 00.9-.7l.1-.1h.1v.1l-.1.1a6.47 6.47 0 00-.8.9.1.1 0 00-.1.1c0-.1-.1 0-.2-.2.1.1 0 .1 0 0zM1.9 3.94l-.1-.1.1-.1.4-.4h.2v.1l-.1.1a2.74 2.74 0 01-.5.4z"/></g></g></symbol><symbol viewBox="0 0 36.4 25.81" id="ride-to" xmlns="http://www.w3.org/2000/svg"><defs><style>.tcls-1{fill:#b79b6c}</style></defs><g id="tСлой_2" data-name="Слой 2"><g id="tСлой_1-2" data-name="Слой 1"><path class="tcls-1" d="M.1 7.3a1 1 0 011-.6h12c.6 0 1 .3.9.8a.86.86 0 01-.6.7H1a.89.89 0 01-1-.6c.1 0 .1-.2.1-.3z"/><path class="tcls-1" d="M34.1 20.1a1.33 1.33 0 00.8-1.1v-5.4H16.7a3.29 3.29 0 01-3.4-2.4.78.78 0 01.3-1 .73.73 0 011 .4v.1a2.1 2.1 0 002.3 1.4h17.6l.1-.1a8.74 8.74 0 00-.8-1 111.8 111.8 0 00-9-7.8 9.18 9.18 0 00-5.5-1.7H5.8a3.55 3.55 0 00-1 .2A1.21 1.21 0 004 2.9v1.5a.81.81 0 01-.7.9c-.4 0-.7-.3-.7-.9V2.9A2.82 2.82 0 015.1.1c.3 0 .7-.1 1-.1H19c1 0 2 .1 3 .2a7.49 7.49 0 013.5 1.6c2 1.6 3.9 3.2 5.8 4.8 1.3 1.1 2.5 2.3 3.7 3.4a4 4 0 011.3 3c0 2 .1 3.9.1 5.9a2.55 2.55 0 01-1.9 2.5c-.3.1-.4.2-.4.5a4.82 4.82 0 01-9.5-.5 4.5 4.5 0 012-4.4 4.41 4.41 0 014.8-.4 4.6 4.6 0 012.7 3.2zm-4.7-2.4a3.3 3.3 0 103.3 3.3 3.33 3.33 0 00-3.3-3.3z"/><path class="tcls-1" d="M14.3 21.9a16.32 16.32 0 01-.9 1.9 4.53 4.53 0 01-4.8 1.9 4.8 4.8 0 01-3.8-3.8.45.45 0 00-.3-.3 2.8 2.8 0 01-2-2.9V17a.82.82 0 01.8-.9c.4 0 .7.3.7.9v1.9a1.39 1.39 0 00.7 1.2c.1-.4.3-.7.4-1.1a4.77 4.77 0 014.9-2.7 4.89 4.89 0 014.1 3.7c.1.3.2.3.4.3h7.9a.66.66 0 01.6.7.76.76 0 01-.6.8h-7.8a.37.37 0 00-.3.1zm-4.8-4.2a3.3 3.3 0 103.3 3.3 3.33 3.33 0 00-3.3-3.3zM7.6 11.3H5c-.6 0-1-.5-.7-1 .1-.3.4-.4.7-.5h5.2a.74.74 0 01.8.8.71.71 0 01-.8.7zM9.4 14.4H8a.71.71 0 01-.8-.7.79.79 0 01.8-.8h2.8a.71.71 0 01.8.7c0 .4-.3.7-.8.8zM2.5 14.4h-1a.68.68 0 01-.7-.7.76.76 0 01.6-.8h2.1c.4 0 .6.4.6.8a.68.68 0 01-.7.7zM29.4 20.3a.75.75 0 01.1 1.5.85.85 0 01-.8-.7.67.67 0 01.7-.8z"/><path class="tcls-1" d="M9.5 20.3a.85.85 0 01.8.7.77.77 0 01-.7.8.85.85 0 01-.8-.7.67.67 0 01.7-.8z"/></g></g></symbol><symbol viewBox="0 0 35.2 34.55" id="technical-supervision" xmlns="http://www.w3.org/2000/svg"><defs><style>.ucls-1{fill:#b79b6c}</style></defs><g id="uСлой_2" data-name="Слой 2"><g id="uСлой_1-2" data-name="Слой 1"><path class="ucls-1" d="M8.6 22.35a8.43 8.43 0 01-1.4.6c-.8.2-.9.6-.9 1.4.1 3.2 0 6.4 0 9.5 0 .5 0 .5-.4.5h-.1c-.3.1-.4-.1-.4-.4v-10.2h-.2a7.08 7.08 0 00-3.3 2.3 4.11 4.11 0 00-.9 2.6v5.2c0 .4 0 .4-.4.4-.6 0-.6 0-.6-.6v-5a5.26 5.26 0 012.2-4.3 11.81 11.81 0 012.9-1.6c1.7-.7 3.3-1.5 5-2.1a1.33 1.33 0 001-1.5 2.83 2.83 0 00-.7-2.1 8.06 8.06 0 01-1.6-4.3.76.76 0 00-.2-.5c-.5-.4-.3-1-.3-1.5a.35.35 0 01.2-.1h.2c.7 0 .6 0 .6.6a.76.76 0 00.2.5.91.91 0 01.3.7 7.88 7.88 0 001.6 4.4 4.47 4.47 0 005.9.8 5.73 5.73 0 002.2-3.5 12.5 12.5 0 00.3-1.9.76.76 0 01.2-.4.67.67 0 00.3-.8c0-.2 0-.4.3-.4.8 0 .7-.1.7.7a1.28 1.28 0 01-.4 1 .76.76 0 00-.2.5 7.81 7.81 0 01-1.9 4.8 1.07 1.07 0 00-.2.6v1.8a.55.55 0 00.3.5 8 8 0 011.6.8 1.38 1.38 0 01.3.4v12.3c0 .5 0 .5-.5.5h-.2c-.3 0-.4-.1-.4-.4v-11.5c0-.4-.1-.6-.5-.7s-.6-.3-.9-.4-.3-.1-.5.1c-.9 1.1-1.8 2.1-2.7 3.2-.4.4-.7.4-1 0-.9-1-1.7-2-2.6-3.1-.3-.4-.3-.4-.8-.2-.2.1-.5.2-.7.3a.55.55 0 00-.4.6v11.7c0 .3-.1.3-.3.3-.8 0-.7.1-.7-.7v-11.4zm3.2-3.6v1.3a1.42 1.42 0 00.2.6l1.8 2.1c.3.3.5.6.8.9l.3-.3c.7-.8 1.4-1.7 2.2-2.5.1-.1.3-.3.3-.4v-1.7a6.14 6.14 0 01-5.6 0zM23 33.25h11v-16h-.8c-.2 0-.2-.1-.3-.2 0-.8 0-.8.8-.8h1.2a.27.27 0 01.3.3v17.6c0 .3-.1.4-.4.4H22.3c-.3 0-.4-.1-.4-.4v-17.5c0-.3.1-.4.4-.4h1.6c.2 0 .3 0 .3.3 0 .8 0 .8-.8.8h-.3C23 22.65 23 28 23 33.25z"/><path class="ucls-1" d="M7.4 7.25a6.89 6.89 0 011.3-4.1 7.21 7.21 0 014.7-3 6.44 6.44 0 015.2 1.1A7 7 0 0121.7 6c0 .2.1.4.1.6v.7h1.1a2.56 2.56 0 01-1.2 1.8 11.64 11.64 0 01-3.7 1.3 18.72 18.72 0 01-4.7.2 13.07 13.07 0 01-5.5-1.3 2.63 2.63 0 01-1.5-1.6.37.37 0 00-.1-.3 4.12 4.12 0 001.2-.1c.1.7.7.9 1.2 1.2a14 14 0 005.3 1.1 17.53 17.53 0 004.6-.4 8.25 8.25 0 002.6-1c.3-.2.6-.4.6-.8h-1c0-.2-.1-.3-.1-.5a3.7 3.7 0 00-.6-2.1 5.68 5.68 0 00-2.6-2.7c-.2-.1-.4-.2-.6 0a1.05 1.05 0 00-.5.9v3.7c0 .8 0 .8-.8.8-.3 0-.3-.1-.3-.3v-4a1.87 1.87 0 01.5-1.4c.1-.1.1-.1.1-.2a8.85 8.85 0 00-2.3 0 2.45 2.45 0 01.6 1.6v3.6c0 .8 0 .8-.8.8-.3-.3-.3-.3-.3-.6V3a1 1 0 00-.5-1c-.4-.3-.7 0-1 .2a5.58 5.58 0 00-2.8 4 4.25 4.25 0 00-.2 1.1zM28.5 18.35h-3c-.2 0-.4 0-.3-.3v-2.7c0-.3.1-.3.3-.3h6a.27.27 0 01.3.3v2.7c0 .3-.1.3-.3.3zm2.2-2.1h-4.4v1.1h4.4zM29.6 21.65h3c.3 0 .3.1.3.3 0 .8 0 .8-.8.8h-5.5c-.3 0-.4-.1-.4-.4 0-.8 0-.8.8-.8a23.48 23.48 0 002.6.1zM29.6 20.55h-3c-.2 0-.3 0-.3-.3 0-.8 0-.8.8-.8h5.5c.3 0 .4.1.3.4 0 .7 0 .7-.7.7zM29.6 25.05h-3a.27.27 0 01-.3-.3c0-.8 0-.8.8-.8h5.5c.3 0 .4.1.4.4 0 .7 0 .7-.7.7zM29.6 26.15h3c.2 0 .4 0 .3.3 0 .8 0 .8-.8.8h-5.5c-.3 0-.4-.1-.4-.4 0-.7 0-.7.7-.7zM31.5 31.15h1.1c.2 0 .2.1.3.2 0 .8 0 .8-.8.8h-1.8a.27.27 0 01-.3-.3c0-.8 0-.8.8-.8a2 2 0 00.7.1zM25.1 22.25c0 .6.1.6-.6.6h-.2c-.2 0-.3 0-.3-.3v-.1c0-.8 0-.8.7-.8.2 0 .4 0 .3.3a.37.37 0 01.1.3zM24.6 20.55c-.5 0-.5 0-.5-.6s-.1-.5.6-.5c.5 0 .4-.1.4.6s.1.5-.5.5zM24.6 24c.6 0 .5-.1.5.6s.1.5-.6.5c-.5 0-.4.1-.4-.6s-.1-.5.5-.5zM24.6 26.15c.6 0 .5-.1.5.6s.1.5-.6.5c-.5 0-.4.1-.4-.7 0-.5-.1-.4.5-.4zM15.1 26.75c0 .5 0 .5-.5.5s-.5 0-.5-.5 0-.5.5-.5.5-.1.5.5zM14.6 29.35c-.5 0-.5 0-.5-.5s0-.5.5-.5.5 0 .5.5 0 .5-.5.5zM14.6 30.55c.5 0 .5 0 .5.5s0 .5-.5.5-.5 0-.5-.5 0-.5.5-.5z"/></g></g></symbol><symbol viewBox="0 0 5.4 5.33" id="time" xmlns="http://www.w3.org/2000/svg"><defs><style>.vcls-1{fill:#fff}</style></defs><g id="vСлой_2" data-name="Слой 2"><g id="vСлой_1-2" data-name="Слой 1"><path class="vcls-1" d="M5.4 2.8v.3A2.78 2.78 0 014.1 5a2.39 2.39 0 01-1.5.3A2.7 2.7 0 01.4 4 2.82 2.82 0 010 2.5 2.32 2.32 0 01.9.6 3.14 3.14 0 012.5 0h.4a2.84 2.84 0 011.2.4 2.69 2.69 0 011.3 1.8v.6zM2.8.2A2.48 2.48 0 00.3 2.7a2.48 2.48 0 002.5 2.5 2.48 2.48 0 002.5-2.5A2.61 2.61 0 002.8.2z"/><path class="vcls-1" d="M2.9 1.5v.9c.1 0 .2.2.2.3s-.2.2-.3.2h-.2a4.35 4.35 0 01-.6.7c-.1.1-.2.1-.2 0v-.1l.6-.6v-.1c0-.2.1-.4.2-.4a.1.1 0 00.1-.1V.7c0-.1 0-.1.1-.1s.1 0 .1.1v.8z"/></g></g></symbol></svg>
